<svg xmlns="http://www.w3.org/2000/svg" xmlns:xlink="http://www.w3.org/1999/xlink" width="500" zoomAndPan="magnify" viewBox="0 0 375 374.999991" height="500" preserveAspectRatio="xMidYMid meet" version="1.0"><defs><g/><clipPath id="808a84ab31"><path d="M 122.753906 114 L 252 114 L 252 232 L 122.753906 232 Z M 122.753906 114 " clip-rule="nonzero"/></clipPath></defs><g clip-path="url(#808a84ab31)"><path fill="#f58115" d="M 148.398438 140.246094 C 142.980469 140.246094 142.964844 186.945312 142.964844 193.289062 C 142.964844 200.988281 154.652344 200.9375 154.652344 209.929688 C 154.652344 212.125 154.65625 214.238281 154.660156 216.300781 C 154.261719 222.320312 148.480469 225.933594 144.335938 222.574219 C 140.195312 219.210938 140.496094 215.554688 139.671875 210.652344 C 137.855469 199.847656 127.371094 188.0625 126.296875 172.648438 C 125.089844 155.347656 127.65625 138.929688 137.605469 128.554688 C 150.480469 115.128906 161.59375 122.117188 182.402344 116.542969 C 212.328125 108.523438 246.941406 127.28125 238.503906 172.648438 C 234.980469 191.585938 240.730469 209.113281 226.476562 218.683594 C 212.703125 227.929688 208.628906 215.214844 208.585938 212.632812 L 208.472656 206.054688 C 208.472656 204.242188 209.238281 203.3125 213.835938 199.8125 C 230.5 187.121094 222.15625 139.652344 204.28125 139.652344 C 186.410156 139.652344 178.066406 187.121094 194.730469 199.8125 C 199.328125 203.3125 200.09375 204.242188 200.09375 206.058594 C 200.058594 208.214844 200.054688 208.238281 199.984375 212.527344 C 199.910156 216.816406 198.644531 226.207031 191.480469 227.1875 C 190.882812 227.269531 188.390625 227.742188 187.78125 227.800781 C 185.511719 227.800781 184.453125 228.199219 182.402344 228.75 C 179.027344 229.652344 176.839844 228.976562 172.703125 230.78125 C 168.566406 232.589844 162.839844 227.101562 162.839844 222.199219 C 162.84375 217.296875 162.863281 214.269531 162.863281 209.929688 C 162.863281 200.9375 174.550781 200.988281 174.550781 193.289062 C 174.550781 186.945312 174.535156 140.246094 169.117188 140.246094 C 168.496094 140.246094 167.503906 141.203125 167.503906 143.066406 L 167.503906 171.894531 C 167.511719 176.042969 167.367188 179.214844 164.625 179.214844 C 161.882812 179.214844 162.105469 173.558594 162.105469 171.789062 C 162.105469 171.316406 160.859375 143.796875 160.832031 143.363281 C 160.675781 141.09375 160.277344 139.652344 158.757812 139.652344 C 157.238281 139.652344 156.609375 141.09375 156.457031 143.363281 C 156.425781 143.796875 155.414062 171.316406 155.414062 171.789062 C 155.414062 173.558594 155.632812 179.214844 152.890625 179.214844 C 150.148438 179.214844 150.007812 176.042969 150.015625 171.894531 L 150.015625 143.066406 C 150.015625 141.203125 149.019531 140.246094 148.398438 140.246094 Z M 248.320312 169.261719 C 245.875 169.445312 244.835938 169.628906 244.039062 166.757812 C 243.242188 163.886719 243.304688 158.632812 245.925781 158.652344 C 248.539062 158.671875 252.230469 160.6875 251.3125 165.417969 C 250.78125 168.160156 250.765625 169.082031 248.320312 169.261719 Z M 243.59375 193.371094 C 241.585938 192.925781 241.429688 186.890625 241.660156 183.949219 C 241.890625 181.011719 242.101562 170.890625 247 173.027344 C 251.894531 175.160156 251.492188 177.753906 249.332031 182.03125 C 248.074219 184.507812 245.597656 193.816406 243.59375 193.371094 Z M 124.773438 196.320312 C 126.65625 195.5 128.734375 197.089844 130.277344 199.605469 C 131.824219 202.113281 137.613281 210.417969 132.402344 211.578125 C 127.1875 212.734375 123.953125 209.257812 123.179688 204.527344 C 122.730469 201.785156 122.890625 197.140625 124.773438 196.320312 " fill-opacity="1" fill-rule="evenodd"/></g><g fill="#fdfbf9" fill-opacity="1"><g transform="translate(86.104171, 269.984392)"><g><path d="M 44.25 -39.46875 C 42.90625 -48.296875 32.859375 -53.515625 21.65625 -51.796875 C 10.765625 -50.125 -3.40625 -41.140625 -2.015625 -31.953125 C -1.4375 -28.234375 1.390625 -25.625 3.6875 -25.96875 C 2.6875 -32.5 10.65625 -41.46875 20.3125 -45.21875 C 15.28125 -38.453125 5.6875 -9.4375 6.734375 -2.546875 C 7.28125 1 11.5625 2.625 13.40625 2.34375 C 13.921875 2.265625 14.1875 2 14.203125 1.609375 C 13.78125 -1.140625 14.90625 -7.75 16.859375 -15.265625 C 19.90625 -6.3125 29.578125 -1.109375 35.734375 -2.046875 C 38.546875 -2.46875 40.625 -4.234375 40.96875 -7.40625 C 40.421875 -7.15625 39.8125 -7 39.3125 -6.921875 C 33.59375 -6.046875 27.796875 -11.6875 25.015625 -16.5 C 34.65625 -19.5625 45.796875 -29.390625 44.25 -39.46875 Z M 18 -19.28125 C 20.625 -28.359375 24.25 -37.84375 27.71875 -43.46875 C 27.921875 -43.640625 27.96875 -43.890625 27.9375 -44.109375 C 27.8125 -44.921875 26.578125 -46.015625 25.125 -46.640625 L 26.078125 -46.78125 C 33.265625 -47.875 37.328125 -45.625 37.953125 -41.546875 C 38.921875 -35.25 30.6875 -23.0625 18 -19.28125 Z M 18 -19.28125 "/></g></g></g><g fill="#fdfbf9" fill-opacity="1"><g transform="translate(129.690087, 263.315691)"><g><path d="M 41.5 -1.5625 C 44.75 -2.0625 47.765625 -5.78125 47.4375 -7.859375 C 47.390625 -8.15625 47.265625 -8.53125 47 -8.703125 C 46.078125 -7.734375 44.40625 -6.796875 43.59375 -6.671875 C 42.84375 -6.5625 42.390625 -7.03125 42.25 -7.90625 C 41.453125 -13.09375 48.765625 -39.78125 54.609375 -50.765625 C 55.59375 -51.765625 51.453125 -54.921875 48.578125 -54.46875 C 47.75 -54.34375 47.0625 -53.9375 46.5625 -53.171875 C 41.171875 -43.25 25.625 -7.546875 18.734375 -6.5 C 17.90625 -6.375 17.40625 -6.75 17.296875 -7.484375 C 16.25 -12.796875 29.28125 -35.734375 28.21875 -42.625 C 27.6875 -46.171875 22.6875 -50.125 15.9375 -49.09375 C 6.828125 -47.703125 -2.5625 -37.625 -1.4375 -30.359375 C -1.078125 -27.921875 1.140625 -24.21875 4.265625 -24.703125 C 3.203125 -31.59375 14.6875 -44.8125 20.03125 -45.625 C 21.28125 -45.828125 21.984375 -45.3125 22.109375 -44.4375 C 22.890625 -39.328125 8.234375 -14.171875 9.515625 -5.71875 C 10.109375 -1.859375 14.234375 1.3125 18.15625 0.703125 C 24.15625 -0.21875 32.140625 -15.609375 38.515625 -29.03125 L 39.28125 -28.84375 C 36.40625 -19.390625 34 -10.28125 34.53125 -6.796875 C 35.09375 -3.171875 38.609375 -1.125 41.5 -1.5625 Z M 41.5 -1.5625 "/></g></g></g><g fill="#fdfbf9" fill-opacity="1"><g transform="translate(180.243814, 255.580905)"><g><path d="M 31.4375 -52.90625 C 19.875 -51.140625 -2.9375 -45 -1.4375 -35.21875 C -1.09375 -33 1.65625 -30.21875 3.96875 -30.578125 C 3.203125 -35.609375 11.65625 -40.859375 21.46875 -44.171875 C 18.703125 -39.953125 14.9375 -31.34375 12.0625 -22.875 C 8.609375 -21.640625 5.71875 -20.21875 4.484375 -18.890625 C 3.5 -17.828125 3.28125 -16.8125 3.390625 -16.078125 C 3.53125 -15.171875 4.203125 -14.609375 4.5 -14.65625 C 4.875 -15.3125 7.140625 -16.34375 10.3125 -17.5 C 8.390625 -11.140625 7.203125 -5.5 7.625 -2.765625 C 8.21875 1.171875 11.9375 2.578125 13.703125 2.296875 C 14.296875 2.203125 14.640625 1.9375 14.65625 1.46875 C 14.125 -1.9375 16.171875 -10.828125 19.21875 -20.15625 C 21.921875 -20.875 24.5 -21.421875 26.71875 -21.75 C 29.984375 -22.25 32.421875 -22.25 32.5625 -21.296875 C 33.359375 -21.421875 34.984375 -24.3125 34.6875 -26.25 C 34.515625 -27.359375 33.609375 -28.203125 31.390625 -27.859375 C 29.984375 -27.640625 25.78125 -26.78125 21.125 -25.625 C 23.625 -32.53125 26.546875 -39.171875 29.234375 -43.46875 C 29.4375 -43.671875 29.5625 -43.8125 29.515625 -44.125 C 29.421875 -44.71875 28.703125 -45.4375 27.78125 -46.0625 C 29.828125 -46.59375 31.890625 -46.984375 33.8125 -47.28125 C 40.109375 -48.234375 41.03125 -46.71875 41.34375 -44.71875 C 43.78125 -45.09375 44.6875 -46.125 44.5 -47.390625 C 44.078125 -50.140625 38.03125 -53.921875 31.4375 -52.90625 Z M 31.4375 -52.90625 "/></g></g></g><g fill="#fdfbf9" fill-opacity="1"><g transform="translate(217.084286, 249.944266)"><g><path d="M 18.296875 2.046875 C 28.890625 0.421875 38.5625 -12.265625 44.453125 -24.9375 C 44.28125 -25.96875 42.8125 -26.65625 42.0625 -26.53125 C 36.09375 -14.546875 27.171875 -5.453125 17.765625 -4.015625 C 12.5625 -3.21875 9.96875 -5.3125 9.28125 -9.765625 C 7.09375 -24.0625 21.296875 -47.265625 30.125 -48.609375 C 32.046875 -48.90625 33.40625 -47.984375 33.71875 -45.90625 C 34.40625 -41.46875 29.90625 -33.1875 26.296875 -30.359375 C 27.46875 -29.828125 28.6875 -29.734375 29.953125 -29.921875 C 35.59375 -30.78125 41.03125 -38.234375 40.078125 -44.53125 C 39.109375 -50.828125 32.1875 -53.484375 26.765625 -52.65625 C 13.421875 -50.609375 -0.796875 -25.59375 1.484375 -10.625 C 2.859375 -1.734375 10.4375 3.25 18.296875 2.046875 Z M 18.296875 2.046875 "/></g></g></g><g fill="#fdfbf9" fill-opacity="1"><g transform="translate(254.369517, 244.239577)"><g><path d="M 32.828125 8.25 C 34.765625 7.953125 36.125 7 35.53125 6.109375 C 34.75 5.984375 34.34375 5.203125 34.140625 3.875 C 33.171875 -2.421875 37.53125 -20 39.21875 -22.390625 C 39.234375 -22.703125 39.265625 -23 39.234375 -23.28125 C 38.875 -25.59375 35.8125 -27.328125 34.328125 -27.09375 C 34.015625 -27.046875 33.734375 -26.9375 33.640625 -26.6875 C 28.25 -15.703125 22.09375 -7.328125 15.5625 -6.328125 C 11.640625 -5.734375 9.625 -7.921875 9.078125 -11.5625 C 7.15625 -24.078125 21.3125 -46.65625 31.03125 -48.140625 C 33.171875 -48.46875 34.515625 -47.6875 34.890625 -45.25 C 35.59375 -40.640625 32.53125 -35.796875 29.75 -32.25 C 30.484375 -31.8125 31.484375 -31.75 32.515625 -31.90625 C 36.75 -32.546875 42.234375 -37.359375 41.21875 -44.09375 C 40.25 -50.390625 33.390625 -53.0625 27.59375 -52.171875 C 13.875 -50.078125 -0.578125 -26.546875 1.5625 -12.53125 C 2.671875 -5.328125 8.859375 -0.21875 15.59375 -1.25 C 20.9375 -2.0625 24.96875 -6.390625 28.65625 -12.5625 L 29.109375 -12.5 C 27.40625 -6.765625 25.765625 -0.234375 26.34375 3.546875 C 26.984375 7.78125 30.3125 8.640625 32.828125 8.25 Z M 32.828125 8.25 "/></g></g></g><g fill="#fdfbf9" fill-opacity="1"><g transform="translate(98.679542, 292.703302)"><g><path d="M 4.21875 0.140625 C 3.53125 0.140625 2.953125 -0.015625 2.484375 -0.328125 C 2.015625 -0.648438 1.640625 -1.078125 1.359375 -1.609375 C 1.085938 -2.140625 0.890625 -2.734375 0.765625 -3.390625 C 0.648438 -4.046875 0.59375 -4.726562 0.59375 -5.4375 C 0.59375 -6.03125 0.648438 -6.617188 0.765625 -7.203125 C 0.890625 -7.796875 1.085938 -8.335938 1.359375 -8.828125 C 1.640625 -9.328125 2.003906 -9.734375 2.453125 -10.046875 C 2.898438 -10.367188 3.453125 -10.554688 4.109375 -10.609375 C 4.835938 -10.609375 5.441406 -10.453125 5.921875 -10.140625 C 6.398438 -9.835938 6.773438 -9.4375 7.046875 -8.9375 C 7.328125 -8.4375 7.523438 -7.882812 7.640625 -7.28125 C 7.753906 -6.6875 7.8125 -6.085938 7.8125 -5.484375 C 7.8125 -4.441406 7.679688 -3.492188 7.421875 -2.640625 C 7.171875 -1.785156 6.78125 -1.109375 6.25 -0.609375 C 5.71875 -0.109375 5.039062 0.140625 4.21875 0.140625 Z M 4.109375 -9.4375 C 3.640625 -9.4375 3.253906 -9.257812 2.953125 -8.90625 C 2.648438 -8.550781 2.425781 -8.070312 2.28125 -7.46875 C 2.144531 -6.875 2.078125 -6.21875 2.078125 -5.5 C 2.078125 -4.644531 2.15625 -3.882812 2.3125 -3.21875 C 2.476562 -2.550781 2.722656 -2.03125 3.046875 -1.65625 C 3.378906 -1.28125 3.78125 -1.09375 4.25 -1.09375 C 4.769531 -1.09375 5.175781 -1.269531 5.46875 -1.625 C 5.769531 -1.976562 5.984375 -2.484375 6.109375 -3.140625 C 6.242188 -3.796875 6.3125 -4.570312 6.3125 -5.46875 C 6.3125 -6.257812 6.25 -6.953125 6.125 -7.546875 C 6 -8.140625 5.78125 -8.601562 5.46875 -8.9375 C 5.15625 -9.269531 4.703125 -9.4375 4.109375 -9.4375 Z M 4.109375 -9.4375 "/></g></g></g><g fill="#fdfbf9" fill-opacity="1"><g transform="translate(107.09453, 292.703302)"><g/></g><g transform="translate(110.09453, 292.703302)"><g><path d="M 0.984375 -1.09375 C 1.054688 -1.101562 1.117188 -1.132812 1.171875 -1.1875 C 1.222656 -1.238281 1.25 -1.296875 1.25 -1.359375 C 1.257812 -1.523438 1.265625 -1.710938 1.265625 -1.921875 C 1.273438 -2.140625 1.28125 -2.300781 1.28125 -2.40625 C 1.28125 -2.769531 1.28125 -3.191406 1.28125 -3.671875 C 1.289062 -4.160156 1.296875 -4.664062 1.296875 -5.1875 C 1.296875 -5.707031 1.296875 -6.210938 1.296875 -6.703125 C 1.296875 -7.191406 1.296875 -7.628906 1.296875 -8.015625 C 1.304688 -8.410156 1.3125 -8.71875 1.3125 -8.9375 C 1.3125 -9.03125 1.273438 -9.101562 1.203125 -9.15625 C 1.140625 -9.21875 1.066406 -9.25 0.984375 -9.25 L 0.921875 -9.25 C 0.828125 -9.25 0.75 -9.28125 0.6875 -9.34375 C 0.625 -9.414062 0.59375 -9.488281 0.59375 -9.5625 L 0.609375 -10.21875 C 0.609375 -10.289062 0.640625 -10.359375 0.703125 -10.421875 C 0.765625 -10.484375 0.835938 -10.515625 0.921875 -10.515625 C 1.148438 -10.515625 1.460938 -10.519531 1.859375 -10.53125 C 2.253906 -10.539062 2.679688 -10.546875 3.140625 -10.546875 C 3.597656 -10.554688 4.023438 -10.5625 4.421875 -10.5625 C 4.816406 -10.5625 5.117188 -10.550781 5.328125 -10.53125 C 5.734375 -10.519531 6.113281 -10.382812 6.46875 -10.125 C 6.832031 -9.875 7.128906 -9.53125 7.359375 -9.09375 C 7.585938 -8.664062 7.707031 -8.1875 7.71875 -7.65625 C 7.75 -6.851562 7.644531 -6.222656 7.40625 -5.765625 C 7.175781 -5.316406 6.722656 -4.988281 6.046875 -4.78125 C 6.023438 -4.769531 6.015625 -4.75 6.015625 -4.71875 C 6.015625 -4.695312 6.023438 -4.6875 6.046875 -4.6875 C 6.328125 -4.582031 6.539062 -4.414062 6.6875 -4.1875 C 6.832031 -3.96875 6.929688 -3.710938 6.984375 -3.421875 C 7.046875 -3.140625 7.085938 -2.859375 7.109375 -2.578125 C 7.128906 -2.304688 7.15625 -2.066406 7.1875 -1.859375 C 7.226562 -1.660156 7.289062 -1.53125 7.375 -1.46875 C 7.53125 -1.363281 7.65625 -1.289062 7.75 -1.25 C 7.84375 -1.21875 7.929688 -1.1875 8.015625 -1.15625 C 8.203125 -1.101562 8.285156 -0.972656 8.265625 -0.765625 C 8.253906 -0.628906 8.238281 -0.523438 8.21875 -0.453125 C 8.207031 -0.378906 8.191406 -0.296875 8.171875 -0.203125 C 8.148438 -0.0351562 8.050781 0.0625 7.875 0.09375 C 7.476562 0.132812 7.09375 0.144531 6.71875 0.125 C 6.34375 0.101562 6.0625 0.0078125 5.875 -0.15625 C 5.71875 -0.320312 5.617188 -0.617188 5.578125 -1.046875 C 5.535156 -1.472656 5.515625 -1.953125 5.515625 -2.484375 C 5.503906 -2.816406 5.425781 -3.113281 5.28125 -3.375 C 5.132812 -3.644531 4.957031 -3.859375 4.75 -4.015625 C 4.539062 -4.171875 4.320312 -4.25 4.09375 -4.25 C 3.957031 -4.269531 3.773438 -4.273438 3.546875 -4.265625 C 3.328125 -4.265625 3.148438 -4.265625 3.015625 -4.265625 C 2.953125 -4.265625 2.898438 -4.238281 2.859375 -4.1875 C 2.816406 -4.144531 2.796875 -4.09375 2.796875 -4.03125 L 2.796875 -1.375 C 2.796875 -1.207031 2.914062 -1.113281 3.15625 -1.09375 C 3.21875 -1.09375 3.273438 -1.066406 3.328125 -1.015625 C 3.378906 -0.960938 3.40625 -0.90625 3.40625 -0.84375 L 3.4375 -0.265625 C 3.445312 -0.203125 3.421875 -0.140625 3.359375 -0.078125 C 3.304688 -0.015625 3.242188 0.015625 3.171875 0.015625 C 2.710938 0.0234375 2.359375 0.03125 2.109375 0.03125 C 1.859375 0.0390625 1.664062 0.046875 1.53125 0.046875 C 1.40625 0.046875 1.300781 0.0390625 1.21875 0.03125 C 1.132812 0.03125 1.039062 0.03125 0.9375 0.03125 C 0.863281 0.03125 0.796875 0 0.734375 -0.0625 C 0.679688 -0.125 0.65625 -0.1875 0.65625 -0.25 L 0.6875 -0.84375 C 0.6875 -0.90625 0.710938 -0.960938 0.765625 -1.015625 C 0.828125 -1.066406 0.898438 -1.09375 0.984375 -1.09375 Z M 4.375 -5.609375 C 4.625 -5.609375 4.882812 -5.664062 5.15625 -5.78125 C 5.4375 -5.90625 5.671875 -6.109375 5.859375 -6.390625 C 6.054688 -6.671875 6.144531 -7.046875 6.125 -7.515625 C 6.113281 -7.898438 6.0625 -8.203125 5.96875 -8.421875 C 5.875 -8.640625 5.722656 -8.804688 5.515625 -8.921875 C 5.316406 -9.035156 5.03125 -9.125 4.65625 -9.1875 C 4.59375 -9.195312 4.460938 -9.203125 4.265625 -9.203125 C 4.066406 -9.210938 3.859375 -9.21875 3.640625 -9.21875 C 3.421875 -9.226562 3.226562 -9.226562 3.0625 -9.21875 C 2.976562 -9.21875 2.90625 -9.1875 2.84375 -9.125 C 2.78125 -9.070312 2.75 -9.003906 2.75 -8.921875 L 2.734375 -5.890625 C 2.734375 -5.804688 2.765625 -5.734375 2.828125 -5.671875 C 2.890625 -5.609375 2.96875 -5.578125 3.0625 -5.578125 C 3.25 -5.585938 3.472656 -5.59375 3.734375 -5.59375 C 3.992188 -5.601562 4.207031 -5.609375 4.375 -5.609375 Z M 4.375 -5.609375 "/></g></g></g><g fill="#fdfbf9" fill-opacity="1"><g transform="translate(118.67452, 292.703302)"><g><path d="M 8.28125 -10.5 C 8.382812 -10.5 8.46875 -10.460938 8.53125 -10.390625 C 8.601562 -10.328125 8.640625 -10.242188 8.640625 -10.140625 L 8.640625 -9.65625 C 8.640625 -9.4375 8.503906 -9.3125 8.234375 -9.28125 C 8.015625 -9.257812 7.90625 -9.140625 7.90625 -8.921875 L 7.90625 -4.515625 C 7.90625 -3.617188 7.851562 -2.867188 7.75 -2.265625 C 7.644531 -1.660156 7.460938 -1.179688 7.203125 -0.828125 C 6.953125 -0.484375 6.601562 -0.234375 6.15625 -0.078125 C 5.71875 0.0664062 5.171875 0.140625 4.515625 0.140625 C 3.910156 0.140625 3.394531 0.0820312 2.96875 -0.03125 C 2.550781 -0.144531 2.210938 -0.363281 1.953125 -0.6875 C 1.691406 -1.019531 1.5 -1.492188 1.375 -2.109375 C 1.25 -2.722656 1.1875 -3.53125 1.1875 -4.53125 C 1.1875 -4.75 1.1875 -5.03125 1.1875 -5.375 C 1.1875 -5.71875 1.179688 -6.085938 1.171875 -6.484375 C 1.171875 -6.878906 1.171875 -7.253906 1.171875 -7.609375 C 1.171875 -7.960938 1.171875 -8.257812 1.171875 -8.5 C 1.171875 -8.75 1.175781 -8.894531 1.1875 -8.9375 C 1.1875 -9.039062 1.148438 -9.125 1.078125 -9.1875 C 1.003906 -9.257812 0.914062 -9.296875 0.8125 -9.296875 C 0.707031 -9.304688 0.625 -9.34375 0.5625 -9.40625 C 0.5 -9.476562 0.46875 -9.554688 0.46875 -9.640625 L 0.453125 -10.109375 C 0.453125 -10.335938 0.5625 -10.46875 0.78125 -10.5 L 3.171875 -10.5 C 3.273438 -10.5 3.363281 -10.460938 3.4375 -10.390625 C 3.507812 -10.328125 3.546875 -10.242188 3.546875 -10.140625 L 3.546875 -9.65625 C 3.546875 -9.5625 3.507812 -9.476562 3.4375 -9.40625 C 3.375 -9.34375 3.296875 -9.304688 3.203125 -9.296875 C 2.929688 -9.265625 2.796875 -9.140625 2.796875 -8.921875 C 2.785156 -8.703125 2.773438 -8.394531 2.765625 -8 C 2.765625 -7.613281 2.757812 -7.195312 2.75 -6.75 C 2.75 -6.3125 2.742188 -5.882812 2.734375 -5.46875 C 2.734375 -5.0625 2.734375 -4.726562 2.734375 -4.46875 C 2.734375 -3.71875 2.757812 -3.085938 2.8125 -2.578125 C 2.863281 -2.078125 3.007812 -1.695312 3.25 -1.4375 C 3.5 -1.1875 3.910156 -1.0625 4.484375 -1.0625 C 5.054688 -1.0625 5.46875 -1.203125 5.71875 -1.484375 C 5.976562 -1.765625 6.140625 -2.164062 6.203125 -2.6875 C 6.265625 -3.207031 6.296875 -3.816406 6.296875 -4.515625 C 6.296875 -5.015625 6.296875 -5.546875 6.296875 -6.109375 C 6.296875 -6.679688 6.296875 -7.21875 6.296875 -7.71875 C 6.296875 -8.226562 6.289062 -8.632812 6.28125 -8.9375 C 6.28125 -9.039062 6.242188 -9.125 6.171875 -9.1875 C 6.109375 -9.257812 6.019531 -9.296875 5.90625 -9.296875 C 5.820312 -9.304688 5.742188 -9.34375 5.671875 -9.40625 C 5.609375 -9.476562 5.570312 -9.554688 5.5625 -9.640625 L 5.546875 -10.09375 C 5.535156 -10.195312 5.5625 -10.285156 5.625 -10.359375 C 5.6875 -10.429688 5.765625 -10.472656 5.859375 -10.484375 L 5.90625 -10.484375 Z M 8.28125 -10.5 "/></g></g></g><g fill="#fdfbf9" fill-opacity="1"><g transform="translate(127.764516, 292.703302)"><g/></g><g transform="translate(130.764516, 292.703302)"><g><path d="M 6.078125 -3.578125 L 6.125 -8.984375 C 6.125 -9.066406 6.097656 -9.128906 6.046875 -9.171875 C 5.992188 -9.222656 5.925781 -9.25 5.84375 -9.25 L 5.78125 -9.25 C 5.707031 -9.25 5.640625 -9.273438 5.578125 -9.328125 C 5.523438 -9.390625 5.5 -9.457031 5.5 -9.53125 L 5.5 -10.234375 C 5.5 -10.304688 5.523438 -10.367188 5.578125 -10.421875 C 5.640625 -10.472656 5.707031 -10.5 5.78125 -10.5 L 7.90625 -10.484375 C 7.976562 -10.484375 8.035156 -10.457031 8.078125 -10.40625 C 8.128906 -10.351562 8.15625 -10.296875 8.15625 -10.234375 L 8.15625 -9.546875 C 8.15625 -9.472656 8.128906 -9.40625 8.078125 -9.34375 C 8.035156 -9.289062 7.976562 -9.265625 7.90625 -9.265625 L 7.75 -9.265625 C 7.582031 -9.242188 7.5 -9.15625 7.5 -9 L 7.5 -3.953125 L 7.546875 -0.265625 C 7.554688 -0.203125 7.53125 -0.140625 7.46875 -0.078125 C 7.414062 -0.0234375 7.351562 0 7.28125 0 L 6.640625 0 C 6.460938 0 6.332031 -0.0703125 6.25 -0.21875 L 2.75 -7.171875 C 2.738281 -7.191406 2.71875 -7.195312 2.6875 -7.1875 C 2.664062 -7.1875 2.65625 -7.175781 2.65625 -7.15625 L 2.671875 -1.390625 C 2.671875 -1.328125 2.695312 -1.265625 2.75 -1.203125 C 2.8125 -1.140625 2.878906 -1.109375 2.953125 -1.109375 L 3.015625 -1.109375 C 3.097656 -1.109375 3.164062 -1.078125 3.21875 -1.015625 C 3.269531 -0.960938 3.296875 -0.894531 3.296875 -0.8125 L 3.28125 -0.265625 C 3.28125 -0.078125 3.1875 0.015625 3 0.015625 L 1.0625 0 C 0.875 0 0.78125 -0.09375 0.78125 -0.28125 L 0.765625 -0.8125 C 0.765625 -0.894531 0.789062 -0.960938 0.84375 -1.015625 C 0.90625 -1.066406 0.972656 -1.09375 1.046875 -1.09375 C 1.128906 -1.09375 1.195312 -1.125 1.25 -1.1875 C 1.300781 -1.25 1.328125 -1.3125 1.328125 -1.375 L 1.3125 -9.046875 C 1.3125 -9.179688 1.238281 -9.25 1.09375 -9.25 L 0.828125 -9.25 C 0.671875 -9.25 0.59375 -9.320312 0.59375 -9.46875 L 0.59375 -10.296875 C 0.59375 -10.429688 0.671875 -10.5 0.828125 -10.5 L 2.234375 -10.5 C 2.398438 -10.519531 2.535156 -10.441406 2.640625 -10.265625 L 5.953125 -3.5625 C 5.972656 -3.53125 6 -3.515625 6.03125 -3.515625 C 6.0625 -3.523438 6.078125 -3.546875 6.078125 -3.578125 Z M 6.078125 -3.578125 "/></g></g></g><g fill="#fdfbf9" fill-opacity="1"><g transform="translate(139.52451, 292.703302)"><g><path d="M 8.40625 -1.15625 C 8.476562 -1.15625 8.539062 -1.125 8.59375 -1.0625 C 8.65625 -1 8.6875 -0.929688 8.6875 -0.859375 L 8.6875 -0.265625 C 8.6875 -0.203125 8.65625 -0.140625 8.59375 -0.078125 C 8.53125 -0.015625 8.460938 0.015625 8.390625 0.015625 L 5.953125 0 C 5.878906 0 5.8125 -0.0234375 5.75 -0.078125 C 5.695312 -0.140625 5.671875 -0.207031 5.671875 -0.28125 L 5.671875 -0.875 C 5.671875 -0.945312 5.695312 -1.007812 5.75 -1.0625 C 5.800781 -1.125 5.867188 -1.15625 5.953125 -1.15625 L 6.171875 -1.15625 C 6.273438 -1.175781 6.3125 -1.234375 6.28125 -1.328125 C 6.226562 -1.472656 6.171875 -1.660156 6.109375 -1.890625 C 6.054688 -2.128906 5.992188 -2.378906 5.921875 -2.640625 C 5.859375 -2.898438 5.796875 -3.128906 5.734375 -3.328125 C 5.703125 -3.460938 5.59375 -3.519531 5.40625 -3.5 C 5.125 -3.488281 4.800781 -3.488281 4.4375 -3.5 C 4.082031 -3.507812 3.773438 -3.515625 3.515625 -3.515625 C 3.359375 -3.515625 3.265625 -3.445312 3.234375 -3.3125 C 3.160156 -3.0625 3.09375 -2.832031 3.03125 -2.625 C 2.96875 -2.425781 2.898438 -2.195312 2.828125 -1.9375 C 2.816406 -1.851562 2.785156 -1.753906 2.734375 -1.640625 C 2.691406 -1.535156 2.65625 -1.4375 2.625 -1.34375 C 2.613281 -1.3125 2.632812 -1.269531 2.6875 -1.21875 C 2.738281 -1.175781 2.78125 -1.15625 2.8125 -1.15625 L 3.078125 -1.140625 C 3.171875 -1.140625 3.25 -1.101562 3.3125 -1.03125 C 3.382812 -0.96875 3.421875 -0.882812 3.421875 -0.78125 L 3.40625 -0.359375 C 3.40625 -0.253906 3.367188 -0.164062 3.296875 -0.09375 C 3.222656 -0.03125 3.140625 0 3.046875 0 L 0.578125 0 C 0.460938 0 0.363281 -0.0390625 0.28125 -0.125 C 0.195312 -0.207031 0.15625 -0.3125 0.15625 -0.4375 L 0.171875 -0.765625 C 0.179688 -0.878906 0.222656 -0.972656 0.296875 -1.046875 C 0.367188 -1.117188 0.457031 -1.160156 0.5625 -1.171875 L 0.671875 -1.171875 C 0.816406 -1.171875 0.910156 -1.238281 0.953125 -1.375 C 1.035156 -1.582031 1.160156 -1.921875 1.328125 -2.390625 C 1.492188 -2.867188 1.679688 -3.425781 1.890625 -4.0625 C 2.097656 -4.707031 2.316406 -5.382812 2.546875 -6.09375 C 2.785156 -6.8125 3.019531 -7.523438 3.25 -8.234375 C 3.476562 -8.953125 3.695312 -9.617188 3.90625 -10.234375 C 3.945312 -10.359375 4.023438 -10.460938 4.140625 -10.546875 C 4.253906 -10.628906 4.375 -10.664062 4.5 -10.65625 L 4.703125 -10.65625 C 4.847656 -10.644531 4.972656 -10.597656 5.078125 -10.515625 C 5.179688 -10.429688 5.253906 -10.328125 5.296875 -10.203125 C 5.410156 -9.816406 5.546875 -9.359375 5.703125 -8.828125 C 5.859375 -8.304688 6.023438 -7.742188 6.203125 -7.140625 C 6.390625 -6.535156 6.570312 -5.9375 6.75 -5.34375 C 6.9375 -4.75 7.113281 -4.179688 7.28125 -3.640625 C 7.445312 -3.109375 7.59375 -2.644531 7.71875 -2.25 C 7.851562 -1.851562 7.957031 -1.554688 8.03125 -1.359375 C 8.070312 -1.242188 8.164062 -1.175781 8.3125 -1.15625 Z M 5.203125 -4.671875 C 5.273438 -4.671875 5.332031 -4.691406 5.375 -4.734375 C 5.414062 -4.785156 5.425781 -4.84375 5.40625 -4.90625 C 5.363281 -5.113281 5.300781 -5.363281 5.21875 -5.65625 C 5.144531 -5.945312 5.066406 -6.238281 4.984375 -6.53125 C 4.910156 -6.820312 4.84375 -7.078125 4.78125 -7.296875 C 4.726562 -7.523438 4.695312 -7.671875 4.6875 -7.734375 C 4.6875 -7.765625 4.664062 -7.78125 4.625 -7.78125 L 4.515625 -7.78125 C 4.472656 -7.78125 4.453125 -7.757812 4.453125 -7.71875 C 4.429688 -7.65625 4.390625 -7.507812 4.328125 -7.28125 C 4.265625 -7.050781 4.1875 -6.789062 4.09375 -6.5 C 4.007812 -6.21875 3.929688 -5.929688 3.859375 -5.640625 C 3.785156 -5.359375 3.722656 -5.117188 3.671875 -4.921875 C 3.660156 -4.859375 3.671875 -4.800781 3.703125 -4.75 C 3.742188 -4.707031 3.796875 -4.6875 3.859375 -4.6875 C 4.035156 -4.6875 4.257812 -4.679688 4.53125 -4.671875 C 4.800781 -4.671875 5.023438 -4.671875 5.203125 -4.671875 Z M 5.203125 -4.671875 "/></g></g></g><g fill="#fdfbf9" fill-opacity="1"><g transform="translate(148.359497, 292.703302)"><g/></g><g transform="translate(151.359496, 292.703302)"><g><path d="M 0.9375 -1.125 L 1.25 -1.15625 C 1.332031 -1.164062 1.40625 -1.203125 1.46875 -1.265625 C 1.539062 -1.328125 1.578125 -1.40625 1.578125 -1.5 L 1.640625 -8.84375 C 1.640625 -8.945312 1.601562 -9.03125 1.53125 -9.09375 C 1.457031 -9.15625 1.378906 -9.1875 1.296875 -9.1875 L 1.171875 -9.1875 C 0.960938 -9.207031 0.847656 -9.328125 0.828125 -9.546875 L 0.8125 -10.125 C 0.800781 -10.226562 0.828125 -10.3125 0.890625 -10.375 C 0.953125 -10.445312 1.035156 -10.488281 1.140625 -10.5 L 1.828125 -10.515625 C 1.828125 -10.515625 1.929688 -10.515625 2.140625 -10.515625 C 2.347656 -10.523438 2.609375 -10.53125 2.921875 -10.53125 C 3.242188 -10.539062 3.554688 -10.535156 3.859375 -10.515625 C 4.171875 -10.503906 4.4375 -10.484375 4.65625 -10.453125 C 4.875 -10.421875 5.117188 -10.351562 5.390625 -10.25 C 5.660156 -10.15625 5.921875 -10.015625 6.171875 -9.828125 C 6.429688 -9.640625 6.65625 -9.382812 6.84375 -9.0625 C 7.03125 -8.75 7.15625 -8.363281 7.21875 -7.90625 C 7.25 -7.132812 7.175781 -6.5 7 -6 C 6.832031 -5.5 6.566406 -5.097656 6.203125 -4.796875 C 5.835938 -4.503906 5.375 -4.269531 4.8125 -4.09375 C 4.59375 -4.019531 4.351562 -3.972656 4.09375 -3.953125 C 3.832031 -3.941406 3.585938 -3.925781 3.359375 -3.90625 C 3.285156 -3.90625 3.226562 -3.878906 3.1875 -3.828125 C 3.144531 -3.773438 3.125 -3.710938 3.125 -3.640625 C 3.125 -3.441406 3.125 -3.207031 3.125 -2.9375 C 3.125 -2.664062 3.125 -2.398438 3.125 -2.140625 C 3.125 -1.878906 3.117188 -1.660156 3.109375 -1.484375 C 3.109375 -1.390625 3.140625 -1.304688 3.203125 -1.234375 C 3.265625 -1.171875 3.347656 -1.140625 3.453125 -1.140625 L 3.8125 -1.125 C 3.90625 -1.125 3.984375 -1.085938 4.046875 -1.015625 C 4.117188 -0.953125 4.15625 -0.867188 4.15625 -0.765625 L 4.140625 -0.3125 C 4.140625 -0.226562 4.101562 -0.148438 4.03125 -0.078125 C 3.96875 -0.015625 3.890625 0.015625 3.796875 0.015625 L 0.953125 0.015625 C 0.859375 0.015625 0.773438 -0.015625 0.703125 -0.078125 C 0.628906 -0.148438 0.59375 -0.238281 0.59375 -0.34375 L 0.609375 -0.796875 C 0.617188 -0.878906 0.65625 -0.953125 0.71875 -1.015625 C 0.78125 -1.078125 0.851562 -1.113281 0.9375 -1.125 Z M 3.140625 -8.890625 C 3.140625 -8.316406 3.140625 -7.738281 3.140625 -7.15625 C 3.140625 -6.582031 3.144531 -6.003906 3.15625 -5.421875 C 3.15625 -5.222656 3.25 -5.125 3.4375 -5.125 C 3.726562 -5.144531 4.035156 -5.222656 4.359375 -5.359375 C 4.679688 -5.492188 4.960938 -5.679688 5.203125 -5.921875 C 5.441406 -6.171875 5.5625 -6.472656 5.5625 -6.828125 C 5.550781 -7.085938 5.550781 -7.347656 5.5625 -7.609375 C 5.582031 -7.867188 5.523438 -8.144531 5.390625 -8.4375 C 5.273438 -8.789062 5.023438 -9.035156 4.640625 -9.171875 C 4.265625 -9.304688 3.859375 -9.332031 3.421875 -9.25 C 3.234375 -9.21875 3.140625 -9.097656 3.140625 -8.890625 Z M 3.140625 -8.890625 "/></g></g></g><g fill="#fdfbf9" fill-opacity="1"><g transform="translate(159.039489, 292.703302)"><g><path d="M 8.40625 -1.15625 C 8.476562 -1.15625 8.539062 -1.125 8.59375 -1.0625 C 8.65625 -1 8.6875 -0.929688 8.6875 -0.859375 L 8.6875 -0.265625 C 8.6875 -0.203125 8.65625 -0.140625 8.59375 -0.078125 C 8.53125 -0.015625 8.460938 0.015625 8.390625 0.015625 L 5.953125 0 C 5.878906 0 5.8125 -0.0234375 5.75 -0.078125 C 5.695312 -0.140625 5.671875 -0.207031 5.671875 -0.28125 L 5.671875 -0.875 C 5.671875 -0.945312 5.695312 -1.007812 5.75 -1.0625 C 5.800781 -1.125 5.867188 -1.15625 5.953125 -1.15625 L 6.171875 -1.15625 C 6.273438 -1.175781 6.3125 -1.234375 6.28125 -1.328125 C 6.226562 -1.472656 6.171875 -1.660156 6.109375 -1.890625 C 6.054688 -2.128906 5.992188 -2.378906 5.921875 -2.640625 C 5.859375 -2.898438 5.796875 -3.128906 5.734375 -3.328125 C 5.703125 -3.460938 5.59375 -3.519531 5.40625 -3.5 C 5.125 -3.488281 4.800781 -3.488281 4.4375 -3.5 C 4.082031 -3.507812 3.773438 -3.515625 3.515625 -3.515625 C 3.359375 -3.515625 3.265625 -3.445312 3.234375 -3.3125 C 3.160156 -3.0625 3.09375 -2.832031 3.03125 -2.625 C 2.96875 -2.425781 2.898438 -2.195312 2.828125 -1.9375 C 2.816406 -1.851562 2.785156 -1.753906 2.734375 -1.640625 C 2.691406 -1.535156 2.65625 -1.4375 2.625 -1.34375 C 2.613281 -1.3125 2.632812 -1.269531 2.6875 -1.21875 C 2.738281 -1.175781 2.78125 -1.15625 2.8125 -1.15625 L 3.078125 -1.140625 C 3.171875 -1.140625 3.25 -1.101562 3.3125 -1.03125 C 3.382812 -0.96875 3.421875 -0.882812 3.421875 -0.78125 L 3.40625 -0.359375 C 3.40625 -0.253906 3.367188 -0.164062 3.296875 -0.09375 C 3.222656 -0.03125 3.140625 0 3.046875 0 L 0.578125 0 C 0.460938 0 0.363281 -0.0390625 0.28125 -0.125 C 0.195312 -0.207031 0.15625 -0.3125 0.15625 -0.4375 L 0.171875 -0.765625 C 0.179688 -0.878906 0.222656 -0.972656 0.296875 -1.046875 C 0.367188 -1.117188 0.457031 -1.160156 0.5625 -1.171875 L 0.671875 -1.171875 C 0.816406 -1.171875 0.910156 -1.238281 0.953125 -1.375 C 1.035156 -1.582031 1.160156 -1.921875 1.328125 -2.390625 C 1.492188 -2.867188 1.679688 -3.425781 1.890625 -4.0625 C 2.097656 -4.707031 2.316406 -5.382812 2.546875 -6.09375 C 2.785156 -6.8125 3.019531 -7.523438 3.25 -8.234375 C 3.476562 -8.953125 3.695312 -9.617188 3.90625 -10.234375 C 3.945312 -10.359375 4.023438 -10.460938 4.140625 -10.546875 C 4.253906 -10.628906 4.375 -10.664062 4.5 -10.65625 L 4.703125 -10.65625 C 4.847656 -10.644531 4.972656 -10.597656 5.078125 -10.515625 C 5.179688 -10.429688 5.253906 -10.328125 5.296875 -10.203125 C 5.410156 -9.816406 5.546875 -9.359375 5.703125 -8.828125 C 5.859375 -8.304688 6.023438 -7.742188 6.203125 -7.140625 C 6.390625 -6.535156 6.570312 -5.9375 6.75 -5.34375 C 6.9375 -4.75 7.113281 -4.179688 7.28125 -3.640625 C 7.445312 -3.109375 7.59375 -2.644531 7.71875 -2.25 C 7.851562 -1.851562 7.957031 -1.554688 8.03125 -1.359375 C 8.070312 -1.242188 8.164062 -1.175781 8.3125 -1.15625 Z M 5.203125 -4.671875 C 5.273438 -4.671875 5.332031 -4.691406 5.375 -4.734375 C 5.414062 -4.785156 5.425781 -4.84375 5.40625 -4.90625 C 5.363281 -5.113281 5.300781 -5.363281 5.21875 -5.65625 C 5.144531 -5.945312 5.066406 -6.238281 4.984375 -6.53125 C 4.910156 -6.820312 4.84375 -7.078125 4.78125 -7.296875 C 4.726562 -7.523438 4.695312 -7.671875 4.6875 -7.734375 C 4.6875 -7.765625 4.664062 -7.78125 4.625 -7.78125 L 4.515625 -7.78125 C 4.472656 -7.78125 4.453125 -7.757812 4.453125 -7.71875 C 4.429688 -7.65625 4.390625 -7.507812 4.328125 -7.28125 C 4.265625 -7.050781 4.1875 -6.789062 4.09375 -6.5 C 4.007812 -6.21875 3.929688 -5.929688 3.859375 -5.640625 C 3.785156 -5.359375 3.722656 -5.117188 3.671875 -4.921875 C 3.660156 -4.859375 3.671875 -4.800781 3.703125 -4.75 C 3.742188 -4.707031 3.796875 -4.6875 3.859375 -4.6875 C 4.035156 -4.6875 4.257812 -4.679688 4.53125 -4.671875 C 4.800781 -4.671875 5.023438 -4.671875 5.203125 -4.671875 Z M 5.203125 -4.671875 "/></g></g></g><g fill="#fdfbf9" fill-opacity="1"><g transform="translate(167.874476, 292.703302)"><g><path d="M 3.25 -9.234375 C 3.15625 -9.222656 3.078125 -9.1875 3.015625 -9.125 C 2.953125 -9.0625 2.921875 -8.984375 2.921875 -8.890625 L 2.890625 -1.8125 C 2.890625 -1.726562 2.921875 -1.648438 2.984375 -1.578125 C 3.054688 -1.503906 3.140625 -1.46875 3.234375 -1.46875 L 5.40625 -1.453125 C 5.601562 -1.453125 5.71875 -1.546875 5.75 -1.734375 L 5.765625 -1.84375 C 5.796875 -2.039062 5.910156 -2.140625 6.109375 -2.140625 L 6.546875 -2.140625 C 6.640625 -2.140625 6.71875 -2.101562 6.78125 -2.03125 C 6.851562 -1.96875 6.890625 -1.882812 6.890625 -1.78125 L 6.859375 -0.359375 C 6.859375 -0.253906 6.820312 -0.171875 6.75 -0.109375 C 6.6875 -0.046875 6.609375 -0.015625 6.515625 -0.015625 L 1.296875 -0.015625 L 0.9375 -0.03125 C 0.84375 -0.03125 0.757812 -0.0625 0.6875 -0.125 C 0.625 -0.1875 0.59375 -0.269531 0.59375 -0.375 L 0.59375 -1.09375 C 0.59375 -1.1875 0.625 -1.265625 0.6875 -1.328125 C 0.757812 -1.398438 0.84375 -1.4375 0.9375 -1.4375 L 1 -1.4375 C 1.101562 -1.4375 1.1875 -1.46875 1.25 -1.53125 C 1.3125 -1.601562 1.34375 -1.6875 1.34375 -1.78125 L 1.375 -8.890625 C 1.375 -8.984375 1.347656 -9.0625 1.296875 -9.125 C 1.242188 -9.1875 1.171875 -9.222656 1.078125 -9.234375 L 1.03125 -9.234375 C 0.820312 -9.273438 0.71875 -9.394531 0.71875 -9.59375 L 0.71875 -10.140625 C 0.71875 -10.234375 0.75 -10.3125 0.8125 -10.375 C 0.882812 -10.445312 0.96875 -10.476562 1.0625 -10.46875 L 3.21875 -10.5 C 3.332031 -10.5 3.421875 -10.460938 3.484375 -10.390625 C 3.554688 -10.316406 3.582031 -10.226562 3.5625 -10.125 L 3.578125 -9.546875 C 3.566406 -9.460938 3.53125 -9.390625 3.46875 -9.328125 C 3.40625 -9.265625 3.332031 -9.234375 3.25 -9.234375 Z M 3.25 -9.234375 "/></g></g></g><g fill="#fdfbf9" fill-opacity="1"><g transform="translate(174.909467, 292.703302)"><g><path d="M 5.5 -0.203125 L 2.984375 -7.0625 C 2.972656 -7.09375 2.953125 -7.101562 2.921875 -7.09375 C 2.890625 -7.09375 2.875 -7.070312 2.875 -7.03125 C 2.863281 -6.488281 2.859375 -5.890625 2.859375 -5.234375 C 2.867188 -4.585938 2.878906 -3.9375 2.890625 -3.28125 C 2.898438 -2.625 2.894531 -2.019531 2.875 -1.46875 C 2.875 -1.375 2.90625 -1.296875 2.96875 -1.234375 C 3.039062 -1.179688 3.113281 -1.148438 3.1875 -1.140625 C 3.320312 -1.140625 3.429688 -1.113281 3.515625 -1.0625 C 3.578125 -1.019531 3.609375 -0.929688 3.609375 -0.796875 C 3.617188 -0.660156 3.617188 -0.523438 3.609375 -0.390625 C 3.597656 -0.285156 3.554688 -0.191406 3.484375 -0.109375 C 3.410156 -0.0351562 3.316406 0 3.203125 0 C 2.878906 0.0078125 2.5 0.015625 2.0625 0.015625 C 1.625 0.015625 1.257812 0.0195312 0.96875 0.03125 C 0.882812 0.03125 0.804688 0 0.734375 -0.0625 C 0.671875 -0.125 0.632812 -0.195312 0.625 -0.28125 C 0.613281 -0.363281 0.601562 -0.441406 0.59375 -0.515625 C 0.59375 -0.585938 0.59375 -0.660156 0.59375 -0.734375 C 0.59375 -0.847656 0.632812 -0.9375 0.71875 -1 C 0.800781 -1.070312 0.890625 -1.113281 0.984375 -1.125 L 1.109375 -1.125 C 1.191406 -1.125 1.257812 -1.15625 1.3125 -1.21875 C 1.375 -1.28125 1.40625 -1.347656 1.40625 -1.421875 C 1.414062 -1.847656 1.421875 -2.335938 1.421875 -2.890625 C 1.421875 -3.441406 1.421875 -4.007812 1.421875 -4.59375 C 1.421875 -5.1875 1.421875 -5.765625 1.421875 -6.328125 C 1.421875 -6.890625 1.421875 -7.394531 1.421875 -7.84375 C 1.421875 -8.300781 1.421875 -8.660156 1.421875 -8.921875 C 1.429688 -9.003906 1.40625 -9.070312 1.34375 -9.125 C 1.289062 -9.1875 1.222656 -9.21875 1.140625 -9.21875 C 1.117188 -9.21875 1.09375 -9.21875 1.0625 -9.21875 C 1.039062 -9.226562 1.015625 -9.234375 0.984375 -9.234375 C 0.890625 -9.234375 0.800781 -9.269531 0.71875 -9.34375 C 0.644531 -9.425781 0.609375 -9.515625 0.609375 -9.609375 C 0.597656 -9.691406 0.59375 -9.789062 0.59375 -9.90625 C 0.59375 -10.03125 0.59375 -10.128906 0.59375 -10.203125 C 0.59375 -10.378906 0.691406 -10.476562 0.890625 -10.5 C 1.203125 -10.519531 1.554688 -10.523438 1.953125 -10.515625 C 2.359375 -10.503906 2.6875 -10.492188 2.9375 -10.484375 C 3.0625 -10.484375 3.144531 -10.425781 3.1875 -10.3125 C 3.488281 -9.570312 3.789062 -8.765625 4.09375 -7.890625 C 4.40625 -7.023438 4.710938 -6.15625 5.015625 -5.28125 C 5.316406 -4.414062 5.613281 -3.625 5.90625 -2.90625 C 5.914062 -2.894531 5.921875 -2.882812 5.921875 -2.875 C 5.953125 -2.820312 6 -2.796875 6.0625 -2.796875 C 6.125 -2.796875 6.164062 -2.820312 6.1875 -2.875 C 6.664062 -4.09375 7.117188 -5.34375 7.546875 -6.625 C 7.984375 -7.90625 8.429688 -9.132812 8.890625 -10.3125 C 8.941406 -10.445312 9.035156 -10.515625 9.171875 -10.515625 C 9.203125 -10.515625 9.304688 -10.515625 9.484375 -10.515625 C 9.660156 -10.515625 9.863281 -10.515625 10.09375 -10.515625 C 10.320312 -10.515625 10.539062 -10.515625 10.75 -10.515625 C 10.957031 -10.515625 11.101562 -10.515625 11.1875 -10.515625 C 11.414062 -10.515625 11.53125 -10.414062 11.53125 -10.21875 C 11.53125 -10.144531 11.53125 -10.035156 11.53125 -9.890625 C 11.539062 -9.742188 11.546875 -9.632812 11.546875 -9.5625 C 11.546875 -9.476562 11.515625 -9.398438 11.453125 -9.328125 C 11.398438 -9.265625 11.320312 -9.226562 11.21875 -9.21875 C 11.164062 -9.21875 11.113281 -9.210938 11.0625 -9.203125 C 11.019531 -9.203125 10.972656 -9.203125 10.921875 -9.203125 C 10.835938 -9.210938 10.765625 -9.1875 10.703125 -9.125 C 10.640625 -9.070312 10.613281 -9.003906 10.625 -8.921875 C 10.632812 -8.066406 10.640625 -7.222656 10.640625 -6.390625 C 10.648438 -5.566406 10.65625 -4.769531 10.65625 -4 C 10.65625 -3.695312 10.65625 -3.394531 10.65625 -3.09375 C 10.65625 -2.800781 10.660156 -2.492188 10.671875 -2.171875 C 10.671875 -2.128906 10.664062 -2.03125 10.65625 -1.875 C 10.65625 -1.726562 10.660156 -1.582031 10.671875 -1.4375 C 10.671875 -1.351562 10.695312 -1.28125 10.75 -1.21875 C 10.8125 -1.164062 10.878906 -1.140625 10.953125 -1.140625 C 10.992188 -1.128906 11.046875 -1.125 11.109375 -1.125 C 11.304688 -1.101562 11.40625 -1 11.40625 -0.8125 L 11.40625 -0.40625 C 11.394531 -0.289062 11.347656 -0.191406 11.265625 -0.109375 C 11.179688 -0.0351562 11.085938 0 10.984375 0 L 8.84375 0 C 8.75 0.0078125 8.664062 -0.015625 8.59375 -0.078125 C 8.519531 -0.148438 8.476562 -0.238281 8.46875 -0.34375 C 8.457031 -0.445312 8.453125 -0.539062 8.453125 -0.625 C 8.453125 -0.71875 8.453125 -0.773438 8.453125 -0.796875 C 8.453125 -0.890625 8.484375 -0.96875 8.546875 -1.03125 C 8.617188 -1.09375 8.703125 -1.117188 8.796875 -1.109375 L 8.8125 -1.109375 C 8.90625 -1.097656 8.988281 -1.125 9.0625 -1.1875 C 9.132812 -1.257812 9.171875 -1.335938 9.171875 -1.421875 C 9.160156 -2.253906 9.15625 -3.15625 9.15625 -4.125 C 9.164062 -5.09375 9.171875 -6.050781 9.171875 -7 C 9.171875 -7.050781 9.148438 -7.078125 9.109375 -7.078125 C 9.078125 -7.085938 9.050781 -7.066406 9.03125 -7.015625 C 8.9375 -6.742188 8.8125 -6.394531 8.65625 -5.96875 C 8.507812 -5.539062 8.34375 -5.070312 8.15625 -4.5625 C 7.976562 -4.050781 7.796875 -3.539062 7.609375 -3.03125 C 7.429688 -2.53125 7.269531 -2.066406 7.125 -1.640625 C 6.976562 -1.210938 6.851562 -0.863281 6.75 -0.59375 C 6.65625 -0.332031 6.601562 -0.195312 6.59375 -0.1875 C 6.519531 -0.0195312 6.394531 0.0625 6.21875 0.0625 C 6.164062 0.0703125 6.101562 0.078125 6.03125 0.078125 C 5.96875 0.0859375 5.90625 0.0859375 5.84375 0.078125 C 5.675781 0.046875 5.5625 -0.046875 5.5 -0.203125 Z M 5.5 -0.203125 "/></g></g></g><g fill="#fdfbf9" fill-opacity="1"><g transform="translate(187.059453, 292.703302)"><g><path d="M 8.40625 -1.15625 C 8.476562 -1.15625 8.539062 -1.125 8.59375 -1.0625 C 8.65625 -1 8.6875 -0.929688 8.6875 -0.859375 L 8.6875 -0.265625 C 8.6875 -0.203125 8.65625 -0.140625 8.59375 -0.078125 C 8.53125 -0.015625 8.460938 0.015625 8.390625 0.015625 L 5.953125 0 C 5.878906 0 5.8125 -0.0234375 5.75 -0.078125 C 5.695312 -0.140625 5.671875 -0.207031 5.671875 -0.28125 L 5.671875 -0.875 C 5.671875 -0.945312 5.695312 -1.007812 5.75 -1.0625 C 5.800781 -1.125 5.867188 -1.15625 5.953125 -1.15625 L 6.171875 -1.15625 C 6.273438 -1.175781 6.3125 -1.234375 6.28125 -1.328125 C 6.226562 -1.472656 6.171875 -1.660156 6.109375 -1.890625 C 6.054688 -2.128906 5.992188 -2.378906 5.921875 -2.640625 C 5.859375 -2.898438 5.796875 -3.128906 5.734375 -3.328125 C 5.703125 -3.460938 5.59375 -3.519531 5.40625 -3.5 C 5.125 -3.488281 4.800781 -3.488281 4.4375 -3.5 C 4.082031 -3.507812 3.773438 -3.515625 3.515625 -3.515625 C 3.359375 -3.515625 3.265625 -3.445312 3.234375 -3.3125 C 3.160156 -3.0625 3.09375 -2.832031 3.03125 -2.625 C 2.96875 -2.425781 2.898438 -2.195312 2.828125 -1.9375 C 2.816406 -1.851562 2.785156 -1.753906 2.734375 -1.640625 C 2.691406 -1.535156 2.65625 -1.4375 2.625 -1.34375 C 2.613281 -1.3125 2.632812 -1.269531 2.6875 -1.21875 C 2.738281 -1.175781 2.78125 -1.15625 2.8125 -1.15625 L 3.078125 -1.140625 C 3.171875 -1.140625 3.25 -1.101562 3.3125 -1.03125 C 3.382812 -0.96875 3.421875 -0.882812 3.421875 -0.78125 L 3.40625 -0.359375 C 3.40625 -0.253906 3.367188 -0.164062 3.296875 -0.09375 C 3.222656 -0.03125 3.140625 0 3.046875 0 L 0.578125 0 C 0.460938 0 0.363281 -0.0390625 0.28125 -0.125 C 0.195312 -0.207031 0.15625 -0.3125 0.15625 -0.4375 L 0.171875 -0.765625 C 0.179688 -0.878906 0.222656 -0.972656 0.296875 -1.046875 C 0.367188 -1.117188 0.457031 -1.160156 0.5625 -1.171875 L 0.671875 -1.171875 C 0.816406 -1.171875 0.910156 -1.238281 0.953125 -1.375 C 1.035156 -1.582031 1.160156 -1.921875 1.328125 -2.390625 C 1.492188 -2.867188 1.679688 -3.425781 1.890625 -4.0625 C 2.097656 -4.707031 2.316406 -5.382812 2.546875 -6.09375 C 2.785156 -6.8125 3.019531 -7.523438 3.25 -8.234375 C 3.476562 -8.953125 3.695312 -9.617188 3.90625 -10.234375 C 3.945312 -10.359375 4.023438 -10.460938 4.140625 -10.546875 C 4.253906 -10.628906 4.375 -10.664062 4.5 -10.65625 L 4.703125 -10.65625 C 4.847656 -10.644531 4.972656 -10.597656 5.078125 -10.515625 C 5.179688 -10.429688 5.253906 -10.328125 5.296875 -10.203125 C 5.410156 -9.816406 5.546875 -9.359375 5.703125 -8.828125 C 5.859375 -8.304688 6.023438 -7.742188 6.203125 -7.140625 C 6.390625 -6.535156 6.570312 -5.9375 6.75 -5.34375 C 6.9375 -4.75 7.113281 -4.179688 7.28125 -3.640625 C 7.445312 -3.109375 7.59375 -2.644531 7.71875 -2.25 C 7.851562 -1.851562 7.957031 -1.554688 8.03125 -1.359375 C 8.070312 -1.242188 8.164062 -1.175781 8.3125 -1.15625 Z M 5.203125 -4.671875 C 5.273438 -4.671875 5.332031 -4.691406 5.375 -4.734375 C 5.414062 -4.785156 5.425781 -4.84375 5.40625 -4.90625 C 5.363281 -5.113281 5.300781 -5.363281 5.21875 -5.65625 C 5.144531 -5.945312 5.066406 -6.238281 4.984375 -6.53125 C 4.910156 -6.820312 4.84375 -7.078125 4.78125 -7.296875 C 4.726562 -7.523438 4.695312 -7.671875 4.6875 -7.734375 C 4.6875 -7.765625 4.664062 -7.78125 4.625 -7.78125 L 4.515625 -7.78125 C 4.472656 -7.78125 4.453125 -7.757812 4.453125 -7.71875 C 4.429688 -7.65625 4.390625 -7.507812 4.328125 -7.28125 C 4.265625 -7.050781 4.1875 -6.789062 4.09375 -6.5 C 4.007812 -6.21875 3.929688 -5.929688 3.859375 -5.640625 C 3.785156 -5.359375 3.722656 -5.117188 3.671875 -4.921875 C 3.660156 -4.859375 3.671875 -4.800781 3.703125 -4.75 C 3.742188 -4.707031 3.796875 -4.6875 3.859375 -4.6875 C 4.035156 -4.6875 4.257812 -4.679688 4.53125 -4.671875 C 4.800781 -4.671875 5.023438 -4.671875 5.203125 -4.671875 Z M 5.203125 -4.671875 "/></g></g></g><g fill="#fdfbf9" fill-opacity="1"><g transform="translate(195.89444, 292.703302)"><g/></g><g transform="translate(198.89444, 292.703302)"><g><path d="M 7.328125 -3.78125 C 7.285156 -2.914062 7.164062 -2.207031 6.96875 -1.65625 C 6.78125 -1.113281 6.460938 -0.707031 6.015625 -0.4375 C 5.578125 -0.175781 4.9375 -0.0351562 4.09375 -0.015625 C 3.90625 -0.015625 3.625 -0.015625 3.25 -0.015625 C 2.875 -0.015625 2.484375 -0.015625 2.078125 -0.015625 C 1.679688 -0.015625 1.332031 -0.015625 1.03125 -0.015625 C 0.9375 -0.0234375 0.847656 -0.0664062 0.765625 -0.140625 C 0.679688 -0.210938 0.632812 -0.300781 0.625 -0.40625 C 0.625 -0.488281 0.617188 -0.5625 0.609375 -0.625 C 0.609375 -0.695312 0.609375 -0.769531 0.609375 -0.84375 C 0.609375 -0.945312 0.644531 -1.03125 0.71875 -1.09375 C 0.800781 -1.164062 0.890625 -1.203125 0.984375 -1.203125 C 1.097656 -1.203125 1.1875 -1.234375 1.25 -1.296875 C 1.320312 -1.367188 1.359375 -1.457031 1.359375 -1.5625 C 1.359375 -1.738281 1.359375 -2.007812 1.359375 -2.375 C 1.367188 -2.738281 1.375 -3.160156 1.375 -3.640625 C 1.375 -4.117188 1.375 -4.617188 1.375 -5.140625 C 1.375 -5.660156 1.375 -6.164062 1.375 -6.65625 C 1.375 -7.15625 1.367188 -7.601562 1.359375 -8 C 1.359375 -8.40625 1.351562 -8.71875 1.34375 -8.9375 C 1.34375 -9.039062 1.3125 -9.125 1.25 -9.1875 C 1.1875 -9.257812 1.101562 -9.296875 1 -9.296875 L 0.953125 -9.296875 C 0.859375 -9.296875 0.773438 -9.332031 0.703125 -9.40625 C 0.628906 -9.476562 0.597656 -9.5625 0.609375 -9.65625 L 0.609375 -10.109375 C 0.609375 -10.210938 0.640625 -10.296875 0.703125 -10.359375 C 0.773438 -10.429688 0.859375 -10.46875 0.953125 -10.46875 C 1.160156 -10.476562 1.425781 -10.488281 1.75 -10.5 C 2.082031 -10.507812 2.445312 -10.515625 2.84375 -10.515625 C 3.238281 -10.515625 3.625 -10.503906 4 -10.484375 C 4.601562 -10.460938 5.148438 -10.296875 5.640625 -9.984375 C 6.140625 -9.679688 6.539062 -9.28125 6.84375 -8.78125 C 7.144531 -8.289062 7.304688 -7.742188 7.328125 -7.140625 C 7.328125 -7.085938 7.332031 -6.890625 7.34375 -6.546875 C 7.363281 -6.203125 7.375 -5.78125 7.375 -5.28125 C 7.375 -4.789062 7.359375 -4.289062 7.328125 -3.78125 Z M 4.921875 -1.296875 C 5.328125 -1.390625 5.578125 -1.71875 5.671875 -2.28125 C 5.734375 -2.644531 5.773438 -3.070312 5.796875 -3.5625 C 5.816406 -4.050781 5.820312 -4.550781 5.8125 -5.0625 C 5.8125 -5.582031 5.796875 -6.082031 5.765625 -6.5625 C 5.742188 -7.050781 5.703125 -7.476562 5.640625 -7.84375 C 5.578125 -8.21875 5.507812 -8.488281 5.4375 -8.65625 C 5.320312 -8.882812 5.144531 -9.046875 4.90625 -9.140625 C 4.664062 -9.234375 4.398438 -9.285156 4.109375 -9.296875 C 3.828125 -9.304688 3.550781 -9.304688 3.28125 -9.296875 C 3.1875 -9.296875 3.101562 -9.257812 3.03125 -9.1875 C 2.957031 -9.125 2.921875 -9.039062 2.921875 -8.9375 C 2.921875 -8.789062 2.921875 -8.503906 2.921875 -8.078125 C 2.921875 -7.660156 2.914062 -7.175781 2.90625 -6.625 C 2.90625 -6.082031 2.898438 -5.515625 2.890625 -4.921875 C 2.890625 -4.335938 2.882812 -3.789062 2.875 -3.28125 C 2.875 -2.78125 2.867188 -2.375 2.859375 -2.0625 C 2.859375 -1.757812 2.859375 -1.609375 2.859375 -1.609375 C 2.859375 -1.503906 2.894531 -1.414062 2.96875 -1.34375 C 3.039062 -1.28125 3.125 -1.25 3.21875 -1.25 C 3.644531 -1.238281 3.976562 -1.226562 4.21875 -1.21875 C 4.46875 -1.21875 4.703125 -1.242188 4.921875 -1.296875 Z M 4.921875 -1.296875 "/></g></g></g><g fill="#fdfbf9" fill-opacity="1"><g transform="translate(206.874427, 292.703302)"><g><path d="M 8.40625 -1.15625 C 8.476562 -1.15625 8.539062 -1.125 8.59375 -1.0625 C 8.65625 -1 8.6875 -0.929688 8.6875 -0.859375 L 8.6875 -0.265625 C 8.6875 -0.203125 8.65625 -0.140625 8.59375 -0.078125 C 8.53125 -0.015625 8.460938 0.015625 8.390625 0.015625 L 5.953125 0 C 5.878906 0 5.8125 -0.0234375 5.75 -0.078125 C 5.695312 -0.140625 5.671875 -0.207031 5.671875 -0.28125 L 5.671875 -0.875 C 5.671875 -0.945312 5.695312 -1.007812 5.75 -1.0625 C 5.800781 -1.125 5.867188 -1.15625 5.953125 -1.15625 L 6.171875 -1.15625 C 6.273438 -1.175781 6.3125 -1.234375 6.28125 -1.328125 C 6.226562 -1.472656 6.171875 -1.660156 6.109375 -1.890625 C 6.054688 -2.128906 5.992188 -2.378906 5.921875 -2.640625 C 5.859375 -2.898438 5.796875 -3.128906 5.734375 -3.328125 C 5.703125 -3.460938 5.59375 -3.519531 5.40625 -3.5 C 5.125 -3.488281 4.800781 -3.488281 4.4375 -3.5 C 4.082031 -3.507812 3.773438 -3.515625 3.515625 -3.515625 C 3.359375 -3.515625 3.265625 -3.445312 3.234375 -3.3125 C 3.160156 -3.0625 3.09375 -2.832031 3.03125 -2.625 C 2.96875 -2.425781 2.898438 -2.195312 2.828125 -1.9375 C 2.816406 -1.851562 2.785156 -1.753906 2.734375 -1.640625 C 2.691406 -1.535156 2.65625 -1.4375 2.625 -1.34375 C 2.613281 -1.3125 2.632812 -1.269531 2.6875 -1.21875 C 2.738281 -1.175781 2.78125 -1.15625 2.8125 -1.15625 L 3.078125 -1.140625 C 3.171875 -1.140625 3.25 -1.101562 3.3125 -1.03125 C 3.382812 -0.96875 3.421875 -0.882812 3.421875 -0.78125 L 3.40625 -0.359375 C 3.40625 -0.253906 3.367188 -0.164062 3.296875 -0.09375 C 3.222656 -0.03125 3.140625 0 3.046875 0 L 0.578125 0 C 0.460938 0 0.363281 -0.0390625 0.28125 -0.125 C 0.195312 -0.207031 0.15625 -0.3125 0.15625 -0.4375 L 0.171875 -0.765625 C 0.179688 -0.878906 0.222656 -0.972656 0.296875 -1.046875 C 0.367188 -1.117188 0.457031 -1.160156 0.5625 -1.171875 L 0.671875 -1.171875 C 0.816406 -1.171875 0.910156 -1.238281 0.953125 -1.375 C 1.035156 -1.582031 1.160156 -1.921875 1.328125 -2.390625 C 1.492188 -2.867188 1.679688 -3.425781 1.890625 -4.0625 C 2.097656 -4.707031 2.316406 -5.382812 2.546875 -6.09375 C 2.785156 -6.8125 3.019531 -7.523438 3.25 -8.234375 C 3.476562 -8.953125 3.695312 -9.617188 3.90625 -10.234375 C 3.945312 -10.359375 4.023438 -10.460938 4.140625 -10.546875 C 4.253906 -10.628906 4.375 -10.664062 4.5 -10.65625 L 4.703125 -10.65625 C 4.847656 -10.644531 4.972656 -10.597656 5.078125 -10.515625 C 5.179688 -10.429688 5.253906 -10.328125 5.296875 -10.203125 C 5.410156 -9.816406 5.546875 -9.359375 5.703125 -8.828125 C 5.859375 -8.304688 6.023438 -7.742188 6.203125 -7.140625 C 6.390625 -6.535156 6.570312 -5.9375 6.75 -5.34375 C 6.9375 -4.75 7.113281 -4.179688 7.28125 -3.640625 C 7.445312 -3.109375 7.59375 -2.644531 7.71875 -2.25 C 7.851562 -1.851562 7.957031 -1.554688 8.03125 -1.359375 C 8.070312 -1.242188 8.164062 -1.175781 8.3125 -1.15625 Z M 5.203125 -4.671875 C 5.273438 -4.671875 5.332031 -4.691406 5.375 -4.734375 C 5.414062 -4.785156 5.425781 -4.84375 5.40625 -4.90625 C 5.363281 -5.113281 5.300781 -5.363281 5.21875 -5.65625 C 5.144531 -5.945312 5.066406 -6.238281 4.984375 -6.53125 C 4.910156 -6.820312 4.84375 -7.078125 4.78125 -7.296875 C 4.726562 -7.523438 4.695312 -7.671875 4.6875 -7.734375 C 4.6875 -7.765625 4.664062 -7.78125 4.625 -7.78125 L 4.515625 -7.78125 C 4.472656 -7.78125 4.453125 -7.757812 4.453125 -7.71875 C 4.429688 -7.65625 4.390625 -7.507812 4.328125 -7.28125 C 4.265625 -7.050781 4.1875 -6.789062 4.09375 -6.5 C 4.007812 -6.21875 3.929688 -5.929688 3.859375 -5.640625 C 3.785156 -5.359375 3.722656 -5.117188 3.671875 -4.921875 C 3.660156 -4.859375 3.671875 -4.800781 3.703125 -4.75 C 3.742188 -4.707031 3.796875 -4.6875 3.859375 -4.6875 C 4.035156 -4.6875 4.257812 -4.679688 4.53125 -4.671875 C 4.800781 -4.671875 5.023438 -4.671875 5.203125 -4.671875 Z M 5.203125 -4.671875 "/></g></g></g><g fill="#fdfbf9" fill-opacity="1"><g transform="translate(215.709414, 292.703302)"><g/></g><g transform="translate(218.709414, 292.703302)"><g><path d="M 6.796875 -3.078125 C 6.847656 -2.535156 6.832031 -2.09375 6.75 -1.75 C 6.675781 -1.414062 6.539062 -1.132812 6.34375 -0.90625 C 6.15625 -0.6875 5.894531 -0.476562 5.5625 -0.28125 C 5.195312 -0.0625 4.8125 0.0664062 4.40625 0.109375 C 4.09375 0.148438 3.710938 0.164062 3.265625 0.15625 C 2.816406 0.144531 2.359375 0.0664062 1.890625 -0.078125 C 1.429688 -0.222656 1.015625 -0.476562 0.640625 -0.84375 C 0.554688 -0.925781 0.503906 -1.035156 0.484375 -1.171875 L 0.453125 -2.0625 C 0.453125 -2.195312 0.5 -2.304688 0.59375 -2.390625 C 0.6875 -2.484375 0.800781 -2.535156 0.9375 -2.546875 L 1.5 -2.546875 C 1.625 -2.554688 1.734375 -2.515625 1.828125 -2.421875 C 1.929688 -2.335938 1.988281 -2.226562 2 -2.09375 L 2 -1.84375 C 2.019531 -1.675781 2.09375 -1.539062 2.21875 -1.4375 C 2.4375 -1.28125 2.671875 -1.171875 2.921875 -1.109375 C 3.171875 -1.054688 3.40625 -1.03125 3.625 -1.03125 C 3.882812 -1.03125 4.132812 -1.078125 4.375 -1.171875 C 4.625 -1.273438 4.828125 -1.453125 4.984375 -1.703125 C 5.148438 -1.953125 5.222656 -2.300781 5.203125 -2.75 C 5.191406 -3.03125 5.101562 -3.257812 4.9375 -3.4375 C 4.769531 -3.613281 4.550781 -3.769531 4.28125 -3.90625 C 4.019531 -4.039062 3.726562 -4.175781 3.40625 -4.3125 C 3 -4.476562 2.582031 -4.703125 2.15625 -4.984375 C 1.726562 -5.265625 1.359375 -5.597656 1.046875 -5.984375 C 0.742188 -6.367188 0.578125 -6.789062 0.546875 -7.25 C 0.472656 -8.1875 0.554688 -8.898438 0.796875 -9.390625 C 1.035156 -9.890625 1.453125 -10.25 2.046875 -10.46875 C 2.046875 -10.46875 2.125 -10.488281 2.28125 -10.53125 C 2.445312 -10.582031 2.671875 -10.617188 2.953125 -10.640625 C 3.234375 -10.671875 3.550781 -10.660156 3.90625 -10.609375 C 4.269531 -10.566406 4.648438 -10.457031 5.046875 -10.28125 C 5.453125 -10.101562 5.847656 -9.835938 6.234375 -9.484375 C 6.335938 -9.390625 6.394531 -9.273438 6.40625 -9.140625 L 6.4375 -8.203125 C 6.4375 -8.078125 6.390625 -7.960938 6.296875 -7.859375 C 6.210938 -7.765625 6.097656 -7.722656 5.953125 -7.734375 L 5.359375 -7.734375 C 5.234375 -7.734375 5.125 -7.773438 5.03125 -7.859375 C 4.945312 -7.953125 4.90625 -8.0625 4.90625 -8.1875 L 4.875 -8.515625 C 4.875 -8.640625 4.820312 -8.738281 4.71875 -8.8125 C 4.476562 -8.976562 4.234375 -9.085938 3.984375 -9.140625 C 3.734375 -9.203125 3.492188 -9.234375 3.265625 -9.234375 C 3.015625 -9.234375 2.765625 -9.160156 2.515625 -9.015625 C 2.265625 -8.878906 2.085938 -8.675781 1.984375 -8.40625 C 1.890625 -8.132812 1.9375 -7.789062 2.125 -7.375 C 2.25 -7.132812 2.410156 -6.921875 2.609375 -6.734375 C 2.804688 -6.554688 3.015625 -6.398438 3.234375 -6.265625 C 3.453125 -6.140625 3.648438 -6.035156 3.828125 -5.953125 C 4.003906 -5.878906 4.125 -5.832031 4.1875 -5.8125 C 4.5625 -5.675781 4.941406 -5.507812 5.328125 -5.3125 C 5.710938 -5.113281 6.039062 -4.835938 6.3125 -4.484375 C 6.59375 -4.140625 6.753906 -3.671875 6.796875 -3.078125 Z M 6.796875 -3.078125 "/></g></g></g><g fill="#fdfbf9" fill-opacity="1"><g transform="translate(225.984411, 292.703302)"><g><path d="M 8.28125 -10.5 C 8.382812 -10.5 8.46875 -10.460938 8.53125 -10.390625 C 8.601562 -10.328125 8.640625 -10.242188 8.640625 -10.140625 L 8.640625 -9.65625 C 8.640625 -9.4375 8.503906 -9.3125 8.234375 -9.28125 C 8.015625 -9.257812 7.90625 -9.140625 7.90625 -8.921875 L 7.90625 -4.515625 C 7.90625 -3.617188 7.851562 -2.867188 7.75 -2.265625 C 7.644531 -1.660156 7.460938 -1.179688 7.203125 -0.828125 C 6.953125 -0.484375 6.601562 -0.234375 6.15625 -0.078125 C 5.71875 0.0664062 5.171875 0.140625 4.515625 0.140625 C 3.910156 0.140625 3.394531 0.0820312 2.96875 -0.03125 C 2.550781 -0.144531 2.210938 -0.363281 1.953125 -0.6875 C 1.691406 -1.019531 1.5 -1.492188 1.375 -2.109375 C 1.25 -2.722656 1.1875 -3.53125 1.1875 -4.53125 C 1.1875 -4.75 1.1875 -5.03125 1.1875 -5.375 C 1.1875 -5.71875 1.179688 -6.085938 1.171875 -6.484375 C 1.171875 -6.878906 1.171875 -7.253906 1.171875 -7.609375 C 1.171875 -7.960938 1.171875 -8.257812 1.171875 -8.5 C 1.171875 -8.75 1.175781 -8.894531 1.1875 -8.9375 C 1.1875 -9.039062 1.148438 -9.125 1.078125 -9.1875 C 1.003906 -9.257812 0.914062 -9.296875 0.8125 -9.296875 C 0.707031 -9.304688 0.625 -9.34375 0.5625 -9.40625 C 0.5 -9.476562 0.46875 -9.554688 0.46875 -9.640625 L 0.453125 -10.109375 C 0.453125 -10.335938 0.5625 -10.46875 0.78125 -10.5 L 3.171875 -10.5 C 3.273438 -10.5 3.363281 -10.460938 3.4375 -10.390625 C 3.507812 -10.328125 3.546875 -10.242188 3.546875 -10.140625 L 3.546875 -9.65625 C 3.546875 -9.5625 3.507812 -9.476562 3.4375 -9.40625 C 3.375 -9.34375 3.296875 -9.304688 3.203125 -9.296875 C 2.929688 -9.265625 2.796875 -9.140625 2.796875 -8.921875 C 2.785156 -8.703125 2.773438 -8.394531 2.765625 -8 C 2.765625 -7.613281 2.757812 -7.195312 2.75 -6.75 C 2.75 -6.3125 2.742188 -5.882812 2.734375 -5.46875 C 2.734375 -5.0625 2.734375 -4.726562 2.734375 -4.46875 C 2.734375 -3.71875 2.757812 -3.085938 2.8125 -2.578125 C 2.863281 -2.078125 3.007812 -1.695312 3.25 -1.4375 C 3.5 -1.1875 3.910156 -1.0625 4.484375 -1.0625 C 5.054688 -1.0625 5.46875 -1.203125 5.71875 -1.484375 C 5.976562 -1.765625 6.140625 -2.164062 6.203125 -2.6875 C 6.265625 -3.207031 6.296875 -3.816406 6.296875 -4.515625 C 6.296875 -5.015625 6.296875 -5.546875 6.296875 -6.109375 C 6.296875 -6.679688 6.296875 -7.21875 6.296875 -7.71875 C 6.296875 -8.226562 6.289062 -8.632812 6.28125 -8.9375 C 6.28125 -9.039062 6.242188 -9.125 6.171875 -9.1875 C 6.109375 -9.257812 6.019531 -9.296875 5.90625 -9.296875 C 5.820312 -9.304688 5.742188 -9.34375 5.671875 -9.40625 C 5.609375 -9.476562 5.570312 -9.554688 5.5625 -9.640625 L 5.546875 -10.09375 C 5.535156 -10.195312 5.5625 -10.285156 5.625 -10.359375 C 5.6875 -10.429688 5.765625 -10.472656 5.859375 -10.484375 L 5.90625 -10.484375 Z M 8.28125 -10.5 "/></g></g></g><g fill="#fdfbf9" fill-opacity="1"><g transform="translate(235.074407, 292.703302)"><g><path d="M 8.40625 -1.15625 C 8.476562 -1.15625 8.539062 -1.125 8.59375 -1.0625 C 8.65625 -1 8.6875 -0.929688 8.6875 -0.859375 L 8.6875 -0.265625 C 8.6875 -0.203125 8.65625 -0.140625 8.59375 -0.078125 C 8.53125 -0.015625 8.460938 0.015625 8.390625 0.015625 L 5.953125 0 C 5.878906 0 5.8125 -0.0234375 5.75 -0.078125 C 5.695312 -0.140625 5.671875 -0.207031 5.671875 -0.28125 L 5.671875 -0.875 C 5.671875 -0.945312 5.695312 -1.007812 5.75 -1.0625 C 5.800781 -1.125 5.867188 -1.15625 5.953125 -1.15625 L 6.171875 -1.15625 C 6.273438 -1.175781 6.3125 -1.234375 6.28125 -1.328125 C 6.226562 -1.472656 6.171875 -1.660156 6.109375 -1.890625 C 6.054688 -2.128906 5.992188 -2.378906 5.921875 -2.640625 C 5.859375 -2.898438 5.796875 -3.128906 5.734375 -3.328125 C 5.703125 -3.460938 5.59375 -3.519531 5.40625 -3.5 C 5.125 -3.488281 4.800781 -3.488281 4.4375 -3.5 C 4.082031 -3.507812 3.773438 -3.515625 3.515625 -3.515625 C 3.359375 -3.515625 3.265625 -3.445312 3.234375 -3.3125 C 3.160156 -3.0625 3.09375 -2.832031 3.03125 -2.625 C 2.96875 -2.425781 2.898438 -2.195312 2.828125 -1.9375 C 2.816406 -1.851562 2.785156 -1.753906 2.734375 -1.640625 C 2.691406 -1.535156 2.65625 -1.4375 2.625 -1.34375 C 2.613281 -1.3125 2.632812 -1.269531 2.6875 -1.21875 C 2.738281 -1.175781 2.78125 -1.15625 2.8125 -1.15625 L 3.078125 -1.140625 C 3.171875 -1.140625 3.25 -1.101562 3.3125 -1.03125 C 3.382812 -0.96875 3.421875 -0.882812 3.421875 -0.78125 L 3.40625 -0.359375 C 3.40625 -0.253906 3.367188 -0.164062 3.296875 -0.09375 C 3.222656 -0.03125 3.140625 0 3.046875 0 L 0.578125 0 C 0.460938 0 0.363281 -0.0390625 0.28125 -0.125 C 0.195312 -0.207031 0.15625 -0.3125 0.15625 -0.4375 L 0.171875 -0.765625 C 0.179688 -0.878906 0.222656 -0.972656 0.296875 -1.046875 C 0.367188 -1.117188 0.457031 -1.160156 0.5625 -1.171875 L 0.671875 -1.171875 C 0.816406 -1.171875 0.910156 -1.238281 0.953125 -1.375 C 1.035156 -1.582031 1.160156 -1.921875 1.328125 -2.390625 C 1.492188 -2.867188 1.679688 -3.425781 1.890625 -4.0625 C 2.097656 -4.707031 2.316406 -5.382812 2.546875 -6.09375 C 2.785156 -6.8125 3.019531 -7.523438 3.25 -8.234375 C 3.476562 -8.953125 3.695312 -9.617188 3.90625 -10.234375 C 3.945312 -10.359375 4.023438 -10.460938 4.140625 -10.546875 C 4.253906 -10.628906 4.375 -10.664062 4.5 -10.65625 L 4.703125 -10.65625 C 4.847656 -10.644531 4.972656 -10.597656 5.078125 -10.515625 C 5.179688 -10.429688 5.253906 -10.328125 5.296875 -10.203125 C 5.410156 -9.816406 5.546875 -9.359375 5.703125 -8.828125 C 5.859375 -8.304688 6.023438 -7.742188 6.203125 -7.140625 C 6.390625 -6.535156 6.570312 -5.9375 6.75 -5.34375 C 6.9375 -4.75 7.113281 -4.179688 7.28125 -3.640625 C 7.445312 -3.109375 7.59375 -2.644531 7.71875 -2.25 C 7.851562 -1.851562 7.957031 -1.554688 8.03125 -1.359375 C 8.070312 -1.242188 8.164062 -1.175781 8.3125 -1.15625 Z M 5.203125 -4.671875 C 5.273438 -4.671875 5.332031 -4.691406 5.375 -4.734375 C 5.414062 -4.785156 5.425781 -4.84375 5.40625 -4.90625 C 5.363281 -5.113281 5.300781 -5.363281 5.21875 -5.65625 C 5.144531 -5.945312 5.066406 -6.238281 4.984375 -6.53125 C 4.910156 -6.820312 4.84375 -7.078125 4.78125 -7.296875 C 4.726562 -7.523438 4.695312 -7.671875 4.6875 -7.734375 C 4.6875 -7.765625 4.664062 -7.78125 4.625 -7.78125 L 4.515625 -7.78125 C 4.472656 -7.78125 4.453125 -7.757812 4.453125 -7.71875 C 4.429688 -7.65625 4.390625 -7.507812 4.328125 -7.28125 C 4.265625 -7.050781 4.1875 -6.789062 4.09375 -6.5 C 4.007812 -6.21875 3.929688 -5.929688 3.859375 -5.640625 C 3.785156 -5.359375 3.722656 -5.117188 3.671875 -4.921875 C 3.660156 -4.859375 3.671875 -4.800781 3.703125 -4.75 C 3.742188 -4.707031 3.796875 -4.6875 3.859375 -4.6875 C 4.035156 -4.6875 4.257812 -4.679688 4.53125 -4.671875 C 4.800781 -4.671875 5.023438 -4.671875 5.203125 -4.671875 Z M 5.203125 -4.671875 "/></g></g></g><g fill="#fdfbf9" fill-opacity="1"><g transform="translate(243.909394, 292.703302)"><g/></g><g transform="translate(246.909394, 292.703302)"><g><path d="M 5.5 -0.203125 L 2.984375 -7.0625 C 2.972656 -7.09375 2.953125 -7.101562 2.921875 -7.09375 C 2.890625 -7.09375 2.875 -7.070312 2.875 -7.03125 C 2.863281 -6.488281 2.859375 -5.890625 2.859375 -5.234375 C 2.867188 -4.585938 2.878906 -3.9375 2.890625 -3.28125 C 2.898438 -2.625 2.894531 -2.019531 2.875 -1.46875 C 2.875 -1.375 2.90625 -1.296875 2.96875 -1.234375 C 3.039062 -1.179688 3.113281 -1.148438 3.1875 -1.140625 C 3.320312 -1.140625 3.429688 -1.113281 3.515625 -1.0625 C 3.578125 -1.019531 3.609375 -0.929688 3.609375 -0.796875 C 3.617188 -0.660156 3.617188 -0.523438 3.609375 -0.390625 C 3.597656 -0.285156 3.554688 -0.191406 3.484375 -0.109375 C 3.410156 -0.0351562 3.316406 0 3.203125 0 C 2.878906 0.0078125 2.5 0.015625 2.0625 0.015625 C 1.625 0.015625 1.257812 0.0195312 0.96875 0.03125 C 0.882812 0.03125 0.804688 0 0.734375 -0.0625 C 0.671875 -0.125 0.632812 -0.195312 0.625 -0.28125 C 0.613281 -0.363281 0.601562 -0.441406 0.59375 -0.515625 C 0.59375 -0.585938 0.59375 -0.660156 0.59375 -0.734375 C 0.59375 -0.847656 0.632812 -0.9375 0.71875 -1 C 0.800781 -1.070312 0.890625 -1.113281 0.984375 -1.125 L 1.109375 -1.125 C 1.191406 -1.125 1.257812 -1.15625 1.3125 -1.21875 C 1.375 -1.28125 1.40625 -1.347656 1.40625 -1.421875 C 1.414062 -1.847656 1.421875 -2.335938 1.421875 -2.890625 C 1.421875 -3.441406 1.421875 -4.007812 1.421875 -4.59375 C 1.421875 -5.1875 1.421875 -5.765625 1.421875 -6.328125 C 1.421875 -6.890625 1.421875 -7.394531 1.421875 -7.84375 C 1.421875 -8.300781 1.421875 -8.660156 1.421875 -8.921875 C 1.429688 -9.003906 1.40625 -9.070312 1.34375 -9.125 C 1.289062 -9.1875 1.222656 -9.21875 1.140625 -9.21875 C 1.117188 -9.21875 1.09375 -9.21875 1.0625 -9.21875 C 1.039062 -9.226562 1.015625 -9.234375 0.984375 -9.234375 C 0.890625 -9.234375 0.800781 -9.269531 0.71875 -9.34375 C 0.644531 -9.425781 0.609375 -9.515625 0.609375 -9.609375 C 0.597656 -9.691406 0.59375 -9.789062 0.59375 -9.90625 C 0.59375 -10.03125 0.59375 -10.128906 0.59375 -10.203125 C 0.59375 -10.378906 0.691406 -10.476562 0.890625 -10.5 C 1.203125 -10.519531 1.554688 -10.523438 1.953125 -10.515625 C 2.359375 -10.503906 2.6875 -10.492188 2.9375 -10.484375 C 3.0625 -10.484375 3.144531 -10.425781 3.1875 -10.3125 C 3.488281 -9.570312 3.789062 -8.765625 4.09375 -7.890625 C 4.40625 -7.023438 4.710938 -6.15625 5.015625 -5.28125 C 5.316406 -4.414062 5.613281 -3.625 5.90625 -2.90625 C 5.914062 -2.894531 5.921875 -2.882812 5.921875 -2.875 C 5.953125 -2.820312 6 -2.796875 6.0625 -2.796875 C 6.125 -2.796875 6.164062 -2.820312 6.1875 -2.875 C 6.664062 -4.09375 7.117188 -5.34375 7.546875 -6.625 C 7.984375 -7.90625 8.429688 -9.132812 8.890625 -10.3125 C 8.941406 -10.445312 9.035156 -10.515625 9.171875 -10.515625 C 9.203125 -10.515625 9.304688 -10.515625 9.484375 -10.515625 C 9.660156 -10.515625 9.863281 -10.515625 10.09375 -10.515625 C 10.320312 -10.515625 10.539062 -10.515625 10.75 -10.515625 C 10.957031 -10.515625 11.101562 -10.515625 11.1875 -10.515625 C 11.414062 -10.515625 11.53125 -10.414062 11.53125 -10.21875 C 11.53125 -10.144531 11.53125 -10.035156 11.53125 -9.890625 C 11.539062 -9.742188 11.546875 -9.632812 11.546875 -9.5625 C 11.546875 -9.476562 11.515625 -9.398438 11.453125 -9.328125 C 11.398438 -9.265625 11.320312 -9.226562 11.21875 -9.21875 C 11.164062 -9.21875 11.113281 -9.210938 11.0625 -9.203125 C 11.019531 -9.203125 10.972656 -9.203125 10.921875 -9.203125 C 10.835938 -9.210938 10.765625 -9.1875 10.703125 -9.125 C 10.640625 -9.070312 10.613281 -9.003906 10.625 -8.921875 C 10.632812 -8.066406 10.640625 -7.222656 10.640625 -6.390625 C 10.648438 -5.566406 10.65625 -4.769531 10.65625 -4 C 10.65625 -3.695312 10.65625 -3.394531 10.65625 -3.09375 C 10.65625 -2.800781 10.660156 -2.492188 10.671875 -2.171875 C 10.671875 -2.128906 10.664062 -2.03125 10.65625 -1.875 C 10.65625 -1.726562 10.660156 -1.582031 10.671875 -1.4375 C 10.671875 -1.351562 10.695312 -1.28125 10.75 -1.21875 C 10.8125 -1.164062 10.878906 -1.140625 10.953125 -1.140625 C 10.992188 -1.128906 11.046875 -1.125 11.109375 -1.125 C 11.304688 -1.101562 11.40625 -1 11.40625 -0.8125 L 11.40625 -0.40625 C 11.394531 -0.289062 11.347656 -0.191406 11.265625 -0.109375 C 11.179688 -0.0351562 11.085938 0 10.984375 0 L 8.84375 0 C 8.75 0.0078125 8.664062 -0.015625 8.59375 -0.078125 C 8.519531 -0.148438 8.476562 -0.238281 8.46875 -0.34375 C 8.457031 -0.445312 8.453125 -0.539062 8.453125 -0.625 C 8.453125 -0.71875 8.453125 -0.773438 8.453125 -0.796875 C 8.453125 -0.890625 8.484375 -0.96875 8.546875 -1.03125 C 8.617188 -1.09375 8.703125 -1.117188 8.796875 -1.109375 L 8.8125 -1.109375 C 8.90625 -1.097656 8.988281 -1.125 9.0625 -1.1875 C 9.132812 -1.257812 9.171875 -1.335938 9.171875 -1.421875 C 9.160156 -2.253906 9.15625 -3.15625 9.15625 -4.125 C 9.164062 -5.09375 9.171875 -6.050781 9.171875 -7 C 9.171875 -7.050781 9.148438 -7.078125 9.109375 -7.078125 C 9.078125 -7.085938 9.050781 -7.066406 9.03125 -7.015625 C 8.9375 -6.742188 8.8125 -6.394531 8.65625 -5.96875 C 8.507812 -5.539062 8.34375 -5.070312 8.15625 -4.5625 C 7.976562 -4.050781 7.796875 -3.539062 7.609375 -3.03125 C 7.429688 -2.53125 7.269531 -2.066406 7.125 -1.640625 C 6.976562 -1.210938 6.851562 -0.863281 6.75 -0.59375 C 6.65625 -0.332031 6.601562 -0.195312 6.59375 -0.1875 C 6.519531 -0.0195312 6.394531 0.0625 6.21875 0.0625 C 6.164062 0.0703125 6.101562 0.078125 6.03125 0.078125 C 5.96875 0.0859375 5.90625 0.0859375 5.84375 0.078125 C 5.675781 0.046875 5.5625 -0.046875 5.5 -0.203125 Z M 5.5 -0.203125 "/></g></g></g><g fill="#fdfbf9" fill-opacity="1"><g transform="translate(259.05938, 292.703302)"><g><path d="M 8.40625 -1.15625 C 8.476562 -1.15625 8.539062 -1.125 8.59375 -1.0625 C 8.65625 -1 8.6875 -0.929688 8.6875 -0.859375 L 8.6875 -0.265625 C 8.6875 -0.203125 8.65625 -0.140625 8.59375 -0.078125 C 8.53125 -0.015625 8.460938 0.015625 8.390625 0.015625 L 5.953125 0 C 5.878906 0 5.8125 -0.0234375 5.75 -0.078125 C 5.695312 -0.140625 5.671875 -0.207031 5.671875 -0.28125 L 5.671875 -0.875 C 5.671875 -0.945312 5.695312 -1.007812 5.75 -1.0625 C 5.800781 -1.125 5.867188 -1.15625 5.953125 -1.15625 L 6.171875 -1.15625 C 6.273438 -1.175781 6.3125 -1.234375 6.28125 -1.328125 C 6.226562 -1.472656 6.171875 -1.660156 6.109375 -1.890625 C 6.054688 -2.128906 5.992188 -2.378906 5.921875 -2.640625 C 5.859375 -2.898438 5.796875 -3.128906 5.734375 -3.328125 C 5.703125 -3.460938 5.59375 -3.519531 5.40625 -3.5 C 5.125 -3.488281 4.800781 -3.488281 4.4375 -3.5 C 4.082031 -3.507812 3.773438 -3.515625 3.515625 -3.515625 C 3.359375 -3.515625 3.265625 -3.445312 3.234375 -3.3125 C 3.160156 -3.0625 3.09375 -2.832031 3.03125 -2.625 C 2.96875 -2.425781 2.898438 -2.195312 2.828125 -1.9375 C 2.816406 -1.851562 2.785156 -1.753906 2.734375 -1.640625 C 2.691406 -1.535156 2.65625 -1.4375 2.625 -1.34375 C 2.613281 -1.3125 2.632812 -1.269531 2.6875 -1.21875 C 2.738281 -1.175781 2.78125 -1.15625 2.8125 -1.15625 L 3.078125 -1.140625 C 3.171875 -1.140625 3.25 -1.101562 3.3125 -1.03125 C 3.382812 -0.96875 3.421875 -0.882812 3.421875 -0.78125 L 3.40625 -0.359375 C 3.40625 -0.253906 3.367188 -0.164062 3.296875 -0.09375 C 3.222656 -0.03125 3.140625 0 3.046875 0 L 0.578125 0 C 0.460938 0 0.363281 -0.0390625 0.28125 -0.125 C 0.195312 -0.207031 0.15625 -0.3125 0.15625 -0.4375 L 0.171875 -0.765625 C 0.179688 -0.878906 0.222656 -0.972656 0.296875 -1.046875 C 0.367188 -1.117188 0.457031 -1.160156 0.5625 -1.171875 L 0.671875 -1.171875 C 0.816406 -1.171875 0.910156 -1.238281 0.953125 -1.375 C 1.035156 -1.582031 1.160156 -1.921875 1.328125 -2.390625 C 1.492188 -2.867188 1.679688 -3.425781 1.890625 -4.0625 C 2.097656 -4.707031 2.316406 -5.382812 2.546875 -6.09375 C 2.785156 -6.8125 3.019531 -7.523438 3.25 -8.234375 C 3.476562 -8.953125 3.695312 -9.617188 3.90625 -10.234375 C 3.945312 -10.359375 4.023438 -10.460938 4.140625 -10.546875 C 4.253906 -10.628906 4.375 -10.664062 4.5 -10.65625 L 4.703125 -10.65625 C 4.847656 -10.644531 4.972656 -10.597656 5.078125 -10.515625 C 5.179688 -10.429688 5.253906 -10.328125 5.296875 -10.203125 C 5.410156 -9.816406 5.546875 -9.359375 5.703125 -8.828125 C 5.859375 -8.304688 6.023438 -7.742188 6.203125 -7.140625 C 6.390625 -6.535156 6.570312 -5.9375 6.75 -5.34375 C 6.9375 -4.75 7.113281 -4.179688 7.28125 -3.640625 C 7.445312 -3.109375 7.59375 -2.644531 7.71875 -2.25 C 7.851562 -1.851562 7.957031 -1.554688 8.03125 -1.359375 C 8.070312 -1.242188 8.164062 -1.175781 8.3125 -1.15625 Z M 5.203125 -4.671875 C 5.273438 -4.671875 5.332031 -4.691406 5.375 -4.734375 C 5.414062 -4.785156 5.425781 -4.84375 5.40625 -4.90625 C 5.363281 -5.113281 5.300781 -5.363281 5.21875 -5.65625 C 5.144531 -5.945312 5.066406 -6.238281 4.984375 -6.53125 C 4.910156 -6.820312 4.84375 -7.078125 4.78125 -7.296875 C 4.726562 -7.523438 4.695312 -7.671875 4.6875 -7.734375 C 4.6875 -7.765625 4.664062 -7.78125 4.625 -7.78125 L 4.515625 -7.78125 C 4.472656 -7.78125 4.453125 -7.757812 4.453125 -7.71875 C 4.429688 -7.65625 4.390625 -7.507812 4.328125 -7.28125 C 4.265625 -7.050781 4.1875 -6.789062 4.09375 -6.5 C 4.007812 -6.21875 3.929688 -5.929688 3.859375 -5.640625 C 3.785156 -5.359375 3.722656 -5.117188 3.671875 -4.921875 C 3.660156 -4.859375 3.671875 -4.800781 3.703125 -4.75 C 3.742188 -4.707031 3.796875 -4.6875 3.859375 -4.6875 C 4.035156 -4.6875 4.257812 -4.679688 4.53125 -4.671875 C 4.800781 -4.671875 5.023438 -4.671875 5.203125 -4.671875 Z M 5.375 -11.53125 C 5.132812 -11.53125 4.910156 -11.597656 4.703125 -11.734375 C 4.492188 -11.867188 4.316406 -11.988281 4.171875 -12.09375 C 3.972656 -12.226562 3.769531 -12.257812 3.5625 -12.1875 C 3.363281 -12.125 3.222656 -11.972656 3.140625 -11.734375 C 3.117188 -11.660156 3.070312 -11.59375 3 -11.53125 C 2.925781 -11.476562 2.789062 -11.472656 2.59375 -11.515625 C 2.4375 -11.546875 2.332031 -11.59375 2.28125 -11.65625 C 2.226562 -11.71875 2.207031 -11.789062 2.21875 -11.875 C 2.28125 -12.25 2.394531 -12.523438 2.5625 -12.703125 C 2.726562 -12.878906 2.90625 -13 3.09375 -13.0625 C 3.289062 -13.125 3.457031 -13.15625 3.59375 -13.15625 C 3.800781 -13.164062 3.992188 -13.117188 4.171875 -13.015625 C 4.347656 -12.910156 4.507812 -12.800781 4.65625 -12.6875 C 4.769531 -12.601562 4.878906 -12.523438 4.984375 -12.453125 C 5.097656 -12.390625 5.207031 -12.359375 5.3125 -12.359375 C 5.414062 -12.359375 5.523438 -12.390625 5.640625 -12.453125 C 5.753906 -12.523438 5.832031 -12.644531 5.875 -12.8125 C 5.914062 -12.9375 5.972656 -13.023438 6.046875 -13.078125 C 6.128906 -13.128906 6.253906 -13.144531 6.421875 -13.125 C 6.566406 -13.113281 6.6875 -13.066406 6.78125 -12.984375 C 6.882812 -12.910156 6.921875 -12.800781 6.890625 -12.65625 C 6.804688 -12.320312 6.679688 -12.070312 6.515625 -11.90625 C 6.347656 -11.75 6.160156 -11.644531 5.953125 -11.59375 C 5.753906 -11.550781 5.5625 -11.53125 5.375 -11.53125 Z M 5.375 -11.53125 "/></g></g></g><g fill="#fdfbf9" fill-opacity="1"><g transform="translate(267.894367, 292.703302)"><g><path d="M 4.21875 0.140625 C 3.53125 0.140625 2.953125 -0.015625 2.484375 -0.328125 C 2.015625 -0.648438 1.640625 -1.078125 1.359375 -1.609375 C 1.085938 -2.140625 0.890625 -2.734375 0.765625 -3.390625 C 0.648438 -4.046875 0.59375 -4.726562 0.59375 -5.4375 C 0.59375 -6.03125 0.648438 -6.617188 0.765625 -7.203125 C 0.890625 -7.796875 1.085938 -8.335938 1.359375 -8.828125 C 1.640625 -9.328125 2.003906 -9.734375 2.453125 -10.046875 C 2.898438 -10.367188 3.453125 -10.554688 4.109375 -10.609375 C 4.835938 -10.609375 5.441406 -10.453125 5.921875 -10.140625 C 6.398438 -9.835938 6.773438 -9.4375 7.046875 -8.9375 C 7.328125 -8.4375 7.523438 -7.882812 7.640625 -7.28125 C 7.753906 -6.6875 7.8125 -6.085938 7.8125 -5.484375 C 7.8125 -4.441406 7.679688 -3.492188 7.421875 -2.640625 C 7.171875 -1.785156 6.78125 -1.109375 6.25 -0.609375 C 5.71875 -0.109375 5.039062 0.140625 4.21875 0.140625 Z M 4.109375 -9.4375 C 3.640625 -9.4375 3.253906 -9.257812 2.953125 -8.90625 C 2.648438 -8.550781 2.425781 -8.070312 2.28125 -7.46875 C 2.144531 -6.875 2.078125 -6.21875 2.078125 -5.5 C 2.078125 -4.644531 2.15625 -3.882812 2.3125 -3.21875 C 2.476562 -2.550781 2.722656 -2.03125 3.046875 -1.65625 C 3.378906 -1.28125 3.78125 -1.09375 4.25 -1.09375 C 4.769531 -1.09375 5.175781 -1.269531 5.46875 -1.625 C 5.769531 -1.976562 5.984375 -2.484375 6.109375 -3.140625 C 6.242188 -3.796875 6.3125 -4.570312 6.3125 -5.46875 C 6.3125 -6.257812 6.25 -6.953125 6.125 -7.546875 C 6 -8.140625 5.78125 -8.601562 5.46875 -8.9375 C 5.15625 -9.269531 4.703125 -9.4375 4.109375 -9.4375 Z M 4.109375 -9.4375 "/></g></g></g></svg>